<?xml version="1.0" encoding="utf-8"?>
<!-- Generator: Adobe Illustrator 16.0.0, SVG Export Plug-In . SVG Version: 6.00 Build 0)  -->
<!DOCTYPE svg PUBLIC "-//W3C//DTD SVG 1.1//EN" "http://www.w3.org/Graphics/SVG/1.1/DTD/svg11.dtd">
<svg version="1.1" id="Layer_1" xmlns="http://www.w3.org/2000/svg" xmlns:xlink="http://www.w3.org/1999/xlink" x="0px" y="0px"
	 width="661.317px" height="591.954px" viewBox="0 0 661.317 591.954" enable-background="new 0 0 661.317 591.954"
	 xml:space="preserve">
<path fill="#542D85" d="M592.068,296.915c0,162.556-131.777,294.333-294.332,294.333c-162.557,0-294.334-131.777-294.334-294.333
	S135.18,2.582,297.736,2.582C460.291,2.582,592.068,134.359,592.068,296.915"/>
<path fill="#B7BEC0" d="M349.773,403.853c-0.343,2.132,1.104,4.136,3.23,4.479l13.708,2.217c2.131,0.343,4.136-1.104,4.479-3.234
	l50.135-310.186c0.342-2.127-1.104-4.132-3.234-4.477l-13.706-2.215c-2.124-0.345-4.134,1.103-4.476,3.231L349.773,403.853z"/>
<path fill="#30373E" d="M405.244,90.575L170.113,52.573c-2.129-0.346-4.133,1.101-4.475,3.23L115.382,366.74
	c-0.347,2.127,1.101,4.132,3.233,4.475L353.74,409.22c2.131,0.343,4.136-1.104,4.48-3.231l50.254-310.937
	C408.82,92.925,407.375,90.92,405.244,90.575 M352.48,400.197c-1.819-0.293-3.056-2.002-2.76-3.825
	c0.291-1.817,2.008-3.054,3.823-2.759c1.819,0.295,3.056,2.006,2.763,3.824C356.01,399.258,354.3,400.492,352.48,400.197
	 M354.631,386.893c-1.816-0.295-3.055-2.008-2.76-3.828c0.293-1.817,2.006-3.051,3.826-2.758c1.818,0.295,3.053,2.006,2.762,3.823
	C358.164,385.947,356.449,387.186,354.631,386.893 M356.783,373.582c-1.819-0.293-3.055-2.006-2.762-3.822
	c0.293-1.82,2.008-3.055,3.826-2.762c1.817,0.294,3.055,2.007,2.762,3.824C360.314,372.64,358.6,373.876,356.783,373.582
	 M358.936,360.271c-1.819-0.293-3.057-2.004-2.764-3.822c0.294-1.819,2.01-3.055,3.828-2.762c1.816,0.295,3.055,2.006,2.76,3.825
	C362.465,359.333,360.752,360.566,358.936,360.271 M361.083,346.965c-1.817-0.294-3.052-2.007-2.759-3.824
	c0.294-1.818,2.007-3.056,3.826-2.763c1.817,0.295,3.054,2.009,2.759,3.827C364.615,346.021,362.902,347.261,361.083,346.965
	 M363.238,333.656c-1.822-0.295-3.057-2.008-2.762-3.826c0.293-1.817,2.006-3.053,3.824-2.76c1.817,0.293,3.055,2.008,2.762,3.826
	C366.768,332.714,365.057,333.951,363.238,333.656 M365.385,320.35c-1.816-0.293-3.054-2.007-2.761-3.824
	c0.295-1.82,2.007-3.056,3.828-2.762c1.817,0.293,3.052,2.006,2.76,3.824C368.917,319.409,367.204,320.645,365.385,320.35
	 M367.537,307.04c-1.818-0.295-3.053-2.008-2.762-3.825c0.295-1.82,2.01-3.055,3.826-2.761c1.82,0.293,3.053,2.006,2.762,3.824
	C371.068,306.098,369.355,307.333,367.537,307.04 M369.688,293.733c-1.817-0.297-3.056-2.008-2.758-3.827
	c0.291-1.816,2.006-3.052,3.823-2.759c1.817,0.295,3.056,2.006,2.761,3.823C373.221,292.788,371.507,294.023,369.688,293.733
	 M371.84,280.422c-1.818-0.295-3.056-2.007-2.762-3.824c0.295-1.817,2.008-3.056,3.826-2.762c1.818,0.295,3.055,2.009,2.76,3.825
	C375.372,279.48,373.656,280.717,371.84,280.422 M373.991,267.112c-1.82-0.293-3.056-2.007-2.763-3.821
	c0.295-1.819,2.01-3.056,3.828-2.762c1.817,0.293,3.053,2.007,2.76,3.824C377.523,266.173,375.811,267.405,373.991,267.112
	 M376.145,253.803c-1.82-0.293-3.059-2.005-2.762-3.823c0.293-1.817,2.003-3.053,3.824-2.758c1.818,0.293,3.055,2.003,2.76,3.823
	C379.674,252.864,377.959,254.101,376.145,253.803 M378.294,240.497c-1.819-0.295-3.056-2.008-2.761-3.825
	c0.293-1.819,2.005-3.053,3.822-2.76c1.819,0.295,3.056,2.007,2.763,3.824C381.824,239.556,380.111,240.79,378.294,240.497
	 M380.443,227.188c-1.818-0.296-3.055-2.005-2.76-3.825c0.293-1.817,2.006-3.053,3.824-2.759c1.817,0.293,3.055,2.005,2.762,3.826
	C383.977,226.245,382.262,227.484,380.443,227.188 M382.596,213.88c-1.818-0.293-3.055-2.008-2.763-3.825
	c0.295-1.818,2.008-3.055,3.825-2.758c1.818,0.296,3.054,2.002,2.763,3.823C386.128,212.938,384.412,214.175,382.596,213.88
	 M384.745,200.57c-1.817-0.293-3.054-2.003-2.761-3.824c0.295-1.818,2.008-3.055,3.826-2.76s3.055,2.008,2.762,3.825
	C388.279,199.632,386.564,200.866,384.745,200.57 M386.896,187.263c-1.817-0.293-3.054-2.009-2.761-3.826
	c0.296-1.818,2.007-3.055,3.826-2.758c1.819,0.293,3.054,2.006,2.761,3.825C390.432,186.319,388.714,187.557,386.896,187.263
	 M389.049,173.952c-1.818-0.292-3.056-2.003-2.763-3.821c0.294-1.819,2.007-3.054,3.827-2.763c1.816,0.297,3.053,2.009,2.76,3.829
	C392.578,173.014,390.866,174.246,389.049,173.952 M391.197,160.645c-1.817-0.292-3.053-2.006-2.758-3.824
	c0.291-1.818,2.004-3.055,3.824-2.762c1.818,0.295,3.055,2.008,2.76,3.828C394.732,159.704,393.02,160.94,391.197,160.645
	 M393.35,147.335c-1.818-0.293-3.054-2.005-2.76-3.821c0.293-1.819,2.006-3.055,3.823-2.764c1.821,0.297,3.058,2.009,2.762,3.827
	C396.88,146.394,395.169,147.629,393.35,147.335 M395.502,134.029c-1.818-0.294-3.057-2.009-2.761-3.826
	c0.292-1.817,2.007-3.054,3.825-2.759c1.818,0.293,3.054,2.007,2.759,3.822C399.031,133.086,397.318,134.324,395.502,134.029
	 M397.652,120.721c-1.816-0.295-3.055-2.008-2.762-3.825c0.295-1.819,2.006-3.055,3.825-2.761c1.819,0.295,3.056,2.007,2.763,3.825
	S399.468,121.012,397.652,120.721 M399.803,107.412c-1.816-0.296-3.056-2.006-2.761-3.826c0.295-1.82,2.009-3.053,3.824-2.758
	c1.819,0.292,3.059,2.004,2.764,3.824C403.335,106.471,401.62,107.703,399.803,107.412"/>
<path fill="#49505A" d="M405.33,90.038L170.201,52.036c-2.129-0.346-4.135,1.103-4.478,3.233l-50.258,310.935
	c-0.344,2.129,1.103,4.134,3.231,4.477l235.131,38.003c2.13,0.345,4.134-1.103,4.479-3.231l50.256-310.934
	C408.904,92.388,407.461,90.384,405.33,90.038 M352.566,399.664c-1.817-0.295-3.054-2.008-2.76-3.826
	c0.293-1.817,2.006-3.055,3.824-2.762c1.82,0.295,3.055,2.008,2.762,3.826C356.098,398.72,354.385,399.957,352.566,399.664
	 M354.718,386.355c-1.817-0.294-3.054-2.009-2.761-3.826c0.293-1.818,2.008-3.055,3.826-2.76c1.817,0.293,3.054,2.006,2.759,3.824
	C358.25,385.412,356.537,386.648,354.718,386.355 M356.871,373.045c-1.819-0.295-3.059-2.006-2.764-3.825
	c0.295-1.815,2.01-3.054,3.826-2.759c1.817,0.294,3.055,2.008,2.762,3.824C360.402,372.105,358.688,373.339,356.871,373.045
	 M359.02,359.738c-1.818-0.295-3.053-2.011-2.761-3.828c0.295-1.816,2.008-3.055,3.827-2.758c1.818,0.293,3.054,2.008,2.761,3.823
	C362.552,358.793,360.84,360.031,359.02,359.738 M361.169,346.428c-1.815-0.293-3.052-2.005-2.759-3.822
	c0.295-1.82,2.007-3.054,3.826-2.758c1.817,0.292,3.056,2.002,2.76,3.821C364.703,345.486,362.99,346.722,361.169,346.428
	 M363.324,333.121c-1.82-0.295-3.057-2.006-2.76-3.827c0.291-1.815,2.004-3.054,3.822-2.759s3.053,2.007,2.762,3.826
	C366.854,332.178,365.14,333.414,363.324,333.121 M365.474,319.814c-1.819-0.296-3.055-2.008-2.76-3.827
	c0.291-1.818,2.005-3.053,3.825-2.76c1.818,0.293,3.053,2.007,2.761,3.826C369.005,318.869,367.292,320.106,365.474,319.814
	 M367.625,306.505c-1.818-0.295-3.053-2.008-2.76-3.827c0.293-1.818,2.006-3.054,3.824-2.759c1.816,0.293,3.053,2.006,2.76,3.825
	C371.156,305.561,369.443,306.798,367.625,306.505 M369.775,293.195c-1.819-0.294-3.056-2.007-2.762-3.823
	c0.295-1.822,2.008-3.055,3.825-2.762c1.819,0.295,3.056,2.005,2.761,3.827C373.307,292.253,371.595,293.487,369.775,293.195
	 M371.926,279.886c-1.816-0.295-3.055-2.006-2.762-3.824c0.297-1.818,2.007-3.055,3.828-2.762c1.818,0.295,3.053,2.01,2.76,3.827
	C375.459,278.944,373.746,280.18,371.926,279.886 M374.078,266.579c-1.819-0.293-3.057-2.008-2.762-3.827
	c0.295-1.817,2.008-3.052,3.826-2.757c1.817,0.294,3.055,2.005,2.76,3.824C377.609,265.634,375.896,266.873,374.078,266.579
	 M376.229,253.27c-1.818-0.295-3.057-2.008-2.76-3.825c0.293-1.819,2.005-3.053,3.826-2.759c1.818,0.293,3.052,2.007,2.759,3.825
	C379.76,252.327,378.047,253.563,376.229,253.27 M378.38,239.961c-1.817-0.294-3.054-2.007-2.763-3.825
	c0.297-1.819,2.009-3.055,3.824-2.761c1.819,0.293,3.055,2.008,2.764,3.827C381.91,239.019,380.195,240.254,378.38,239.961
	 M380.531,226.654c-1.818-0.296-3.056-2.008-2.762-3.827c0.295-1.817,2.008-3.055,3.824-2.762c1.818,0.295,3.057,2.009,2.762,3.826
	C384.062,225.709,382.348,226.947,380.531,226.654 M382.681,213.345c-1.817-0.294-3.054-2.008-2.762-3.826
	c0.297-1.817,2.008-3.056,3.827-2.762c1.818,0.295,3.054,2.008,2.761,3.827C386.214,212.4,384.499,213.637,382.681,213.345
	 M384.833,200.037c-1.819-0.295-3.054-2.009-2.761-3.827c0.295-1.818,2.006-3.053,3.826-2.757c1.814,0.291,3.053,2.004,2.758,3.823
	C388.363,199.092,386.652,200.328,384.833,200.037 M386.984,186.727c-1.819-0.293-3.056-2.008-2.761-3.826
	c0.292-1.818,2.005-3.055,3.826-2.76c1.817,0.293,3.054,2.008,2.761,3.824C390.517,185.786,388.802,187.02,386.984,186.727
	 M389.135,173.42c-1.818-0.293-3.055-2.008-2.761-3.827c0.295-1.818,2.007-3.054,3.825-2.758c1.818,0.29,3.055,2.005,2.762,3.821
	C392.667,172.479,390.951,173.713,389.135,173.42 M391.285,160.11c-1.819-0.297-3.053-2.006-2.76-3.826
	c0.291-1.817,2.006-3.055,3.825-2.759c1.817,0.292,3.056,2.008,2.759,3.825C394.816,159.167,393.105,160.405,391.285,160.11
	 M393.438,146.802c-1.818-0.295-3.055-2.008-2.762-3.825c0.293-1.82,2.006-3.055,3.824-2.76c1.82,0.292,3.056,2.005,2.761,3.824
	C396.97,145.86,395.255,147.095,393.438,146.802 M395.588,133.492c-1.816-0.293-3.055-2.005-2.762-3.825
	c0.295-1.818,2.009-3.053,3.826-2.76c1.818,0.297,3.055,2.007,2.76,3.826C399.117,132.551,397.408,133.788,395.588,133.492
	 M397.738,120.185c-1.816-0.294-3.056-2.005-2.76-3.826c0.293-1.819,2.008-3.055,3.823-2.758c1.819,0.293,3.056,2.004,2.761,3.824
	C401.271,119.243,399.558,120.479,397.738,120.185 M399.893,106.875c-1.818-0.293-3.056-2.004-2.765-3.822
	c0.296-1.82,2.009-3.056,3.828-2.762c1.815,0.294,3.052,2.008,2.757,3.825C403.421,105.933,401.708,107.17,399.893,106.875"/>
<path fill="#30373E" d="M418.092,92.652l235.129,38.003c2.131,0.344,3.576,2.349,3.23,4.477l-50.254,310.935
	c-0.345,2.132-2.349,3.577-4.477,3.231l-235.129-38c-2.129-0.346-3.576-2.348-3.233-4.48l50.256-310.935
	C413.959,93.758,415.965,92.31,418.092,92.652 M370.631,403.135c1.818,0.294,3.528-0.942,3.822-2.762
	c0.293-1.819-0.939-3.529-2.758-3.824c-1.82-0.295-3.529,0.939-3.824,2.761C367.578,401.127,368.812,402.84,370.631,403.135
	 M372.782,389.823c1.818,0.294,3.526-0.94,3.821-2.758c0.293-1.817-0.939-3.53-2.756-3.825c-1.818-0.293-3.534,0.941-3.827,2.762
	C369.728,387.817,370.965,389.531,372.782,389.823 M374.934,376.514c1.818,0.296,3.529-0.939,3.822-2.758
	c0.293-1.816-0.942-3.53-2.758-3.823c-1.818-0.295-3.531,0.94-3.826,2.76C371.881,374.51,373.115,376.223,374.934,376.514
	 M377.086,363.207c1.814,0.293,3.525-0.942,3.82-2.76c0.294-1.818-0.939-3.531-2.759-3.826c-1.815-0.293-3.53,0.943-3.824,2.76
	C374.028,361.203,375.264,362.912,377.086,363.207 M379.236,349.901c1.816,0.292,3.527-0.944,3.82-2.763
	c0.296-1.815-0.94-3.53-2.758-3.824c-1.818-0.293-3.529,0.945-3.824,2.76C376.182,347.893,377.416,349.605,379.236,349.901
	 M381.387,336.59c1.818,0.293,3.527-0.942,3.822-2.76c0.295-1.82-0.94-3.533-2.758-3.826c-1.818-0.295-3.529,0.943-3.826,2.763
	C378.332,334.584,379.567,336.295,381.387,336.59 M383.539,323.283c1.818,0.295,3.524-0.942,3.819-2.763
	c0.295-1.818-0.938-3.53-2.757-3.824c-1.819-0.293-3.531,0.942-3.824,2.76C380.482,321.275,381.717,322.989,383.539,323.283
	 M385.688,309.973c1.817,0.293,3.528-0.943,3.823-2.76c0.293-1.818-0.943-3.53-2.76-3.823c-1.817-0.295-3.529,0.941-3.824,2.759
	S383.867,309.679,385.688,309.973 M387.842,296.666c1.813,0.293,3.526-0.943,3.82-2.762c0.291-1.815-0.941-3.531-2.76-3.822
	c-1.818-0.295-3.529,0.943-3.822,2.759C384.785,294.66,386.02,296.373,387.842,296.666 M389.991,283.356
	c1.816,0.294,3.527-0.941,3.819-2.762c0.295-1.815-0.939-3.53-2.756-3.823c-1.819-0.294-3.532,0.941-3.825,2.76
	C386.936,281.35,388.172,283.061,389.991,283.356 M392.141,270.046c1.818,0.296,3.531-0.94,3.822-2.76
	c0.295-1.818-0.939-3.53-2.756-3.822c-1.82-0.294-3.531,0.94-3.826,2.757C389.09,268.041,390.324,269.754,392.141,270.046
	 M394.295,256.74c1.812,0.293,3.526-0.942,3.817-2.762c0.295-1.818-0.937-3.53-2.754-3.825c-1.819-0.292-3.533,0.945-3.826,2.761
	C391.237,254.732,392.474,256.443,394.295,256.74 M396.442,243.431c1.819,0.294,3.53-0.942,3.824-2.76
	c0.295-1.819-0.941-3.531-2.757-3.825c-1.823-0.294-3.533,0.94-3.827,2.76S394.627,243.138,396.442,243.431 M398.598,230.123
	c1.814,0.293,3.525-0.941,3.82-2.76c0.295-1.82-0.941-3.53-2.761-3.824c-1.819-0.296-3.528,0.941-3.821,2.76
	C395.541,228.116,396.774,229.83,398.598,230.123 M400.748,216.812c1.815,0.294,3.525-0.942,3.82-2.759
	c0.295-1.818-0.941-3.528-2.758-3.823c-1.819-0.295-3.532,0.941-3.824,2.759C397.691,214.806,398.926,216.52,400.748,216.812
	 M402.897,203.506c1.817,0.293,3.526-0.943,3.821-2.761c0.293-1.819-0.941-3.528-2.756-3.825c-1.82-0.292-3.533,0.941-3.828,2.761
	C399.844,201.5,401.078,203.212,402.897,203.506 M405.049,190.196c1.815,0.293,3.525-0.943,3.824-2.761
	c0.291-1.817-0.943-3.529-2.761-3.825c-1.819-0.292-3.532,0.944-3.827,2.761C401.993,188.189,403.229,189.902,405.049,190.196
	 M407.199,176.888c1.816,0.293,3.529-0.941,3.82-2.758c0.296-1.818-0.939-3.533-2.756-3.827c-1.82-0.291-3.53,0.946-3.825,2.761
	C404.144,174.883,405.381,176.594,407.199,176.888 M409.35,163.582c1.82,0.292,3.529-0.946,3.822-2.762
	c0.295-1.818-0.939-3.533-2.758-3.826c-1.818-0.294-3.529,0.943-3.824,2.762C406.295,161.57,407.53,163.287,409.35,163.582
	 M411.5,150.273c1.819,0.291,3.529-0.946,3.821-2.764c0.297-1.818-0.937-3.53-2.757-3.824c-1.818-0.294-3.532,0.942-3.824,2.759
	C408.445,148.266,409.68,149.977,411.5,150.273 M413.651,136.961c1.815,0.292,3.53-0.94,3.824-2.762
	c0.291-1.816-0.941-3.528-2.761-3.82c-1.819-0.296-3.529,0.94-3.824,2.757C410.599,134.957,411.832,136.667,413.651,136.961
	 M415.807,123.654c1.812,0.294,3.525-0.943,3.82-2.762c0.291-1.818-0.945-3.529-2.758-3.822c-1.818-0.294-3.533,0.939-3.826,2.758
	C412.75,121.648,413.982,123.359,415.807,123.654 M417.953,110.344c1.818,0.295,3.528-0.941,3.823-2.76
	c0.292-1.82-0.94-3.531-2.757-3.823c-1.819-0.295-3.532,0.94-3.829,2.759C414.9,108.337,416.133,110.051,417.953,110.344"/>
<path fill="#49505A" d="M418.182,92.115l235.125,38.003c2.132,0.344,3.576,2.349,3.234,4.48l-50.258,310.934
	c-0.345,2.132-2.35,3.577-4.477,3.233L366.68,410.76c-2.131-0.344-3.578-2.344-3.235-4.477l50.26-310.933
	C414.047,93.219,416.051,91.771,418.182,92.115 M370.719,402.598c1.817,0.293,3.525-0.943,3.822-2.764
	c0.293-1.816-0.941-3.527-2.759-3.824c-1.819-0.293-3.53,0.943-3.826,2.762C367.663,400.59,368.897,402.305,370.719,402.598
	 M372.87,389.288c1.817,0.292,3.526-0.94,3.821-2.762c0.293-1.817-0.941-3.529-2.758-3.821c-1.82-0.294-3.53,0.94-3.825,2.758
	C369.813,387.284,371.051,388.994,372.87,389.288 M375.021,375.982c1.816,0.293,3.527-0.944,3.82-2.764
	c0.295-1.818-0.942-3.528-2.759-3.821c-1.817-0.295-3.53,0.94-3.823,2.758C371.967,373.975,373.198,375.688,375.021,375.982
	 M377.172,362.674c1.816,0.293,3.527-0.944,3.821-2.763c0.293-1.817-0.938-3.534-2.758-3.825c-1.819-0.295-3.53,0.942-3.825,2.76
	C374.116,360.663,375.352,362.377,377.172,362.674 M379.322,349.363c1.816,0.294,3.527-0.945,3.82-2.76
	c0.296-1.817-0.938-3.531-2.756-3.824c-1.819-0.295-3.533,0.943-3.826,2.759C376.268,347.356,377.502,349.067,379.322,349.363
	 M381.473,336.055c1.816,0.293,3.526-0.941,3.824-2.76c0.293-1.818-0.943-3.533-2.76-3.826c-1.818-0.293-3.531,0.943-3.824,2.76
	C378.418,334.047,379.655,335.76,381.473,336.055 M383.627,322.745c1.814,0.294,3.524-0.941,3.819-2.759
	c0.293-1.821-0.938-3.531-2.758-3.823c-1.82-0.295-3.531,0.938-3.825,2.758C380.568,320.742,381.805,322.452,383.627,322.745
	 M385.776,309.438c1.815,0.293,3.528-0.942,3.821-2.761c0.295-1.818-0.943-3.53-2.76-3.823c-1.818-0.295-3.529,0.939-3.824,2.759
	C382.721,307.434,383.955,309.146,385.776,309.438 M387.928,296.129c1.815,0.293,3.526-0.944,3.821-2.761
	c0.292-1.817-0.942-3.531-2.759-3.824c-1.818-0.295-3.529,0.941-3.825,2.762C384.873,294.124,386.106,295.835,387.928,296.129
	 M390.076,282.82c1.818,0.294,3.529-0.944,3.822-2.76c0.295-1.819-0.941-3.529-2.756-3.823c-1.819-0.295-3.532,0.94-3.827,2.758
	C387.023,280.812,388.258,282.528,390.076,282.82 M392.227,269.51c1.82,0.294,3.531-0.943,3.826-2.759
	c0.291-1.817-0.943-3.529-2.758-3.824c-1.82-0.293-3.533,0.942-3.828,2.762C389.174,267.504,390.407,269.217,392.227,269.51
	 M394.377,256.204c1.82,0.292,3.53-0.945,3.822-2.762c0.295-1.818-0.938-3.53-2.754-3.823c-1.822-0.295-3.533,0.941-3.827,2.76
	C391.323,254.195,392.561,255.911,394.377,256.204 M396.532,242.896c1.815,0.292,3.526-0.946,3.821-2.761
	c0.294-1.819-0.941-3.533-2.76-3.826c-1.82-0.293-3.529,0.943-3.822,2.762C393.477,240.889,394.711,242.602,396.532,242.896
	 M398.684,229.587c1.815,0.292,3.525-0.941,3.82-2.76c0.291-1.82-0.94-3.531-2.758-3.825c-1.822-0.295-3.531,0.942-3.824,2.76
	C395.627,227.581,396.863,229.292,398.684,229.587 M400.833,216.279c1.816,0.291,3.526-0.943,3.821-2.763
	c0.295-1.818-0.941-3.532-2.757-3.824c-1.819-0.294-3.533,0.941-3.824,2.762C397.778,214.27,399.014,215.982,400.833,216.279
	 M402.984,202.971c1.816,0.291,3.529-0.945,3.82-2.764c0.295-1.818-0.941-3.53-2.756-3.823c-1.82-0.294-3.529,0.94-3.828,2.759
	C399.93,200.963,401.165,202.675,402.984,202.971 M405.135,189.661c1.815,0.293,3.529-0.944,3.82-2.763
	c0.295-1.816-0.939-3.53-2.757-3.822c-1.819-0.296-3.532,0.941-3.824,2.759C402.079,187.652,403.313,189.366,405.135,189.661
	 M407.285,176.353c1.816,0.295,3.525-0.942,3.821-2.761c0.295-1.82-0.941-3.53-2.757-3.821c-1.819-0.295-3.533,0.939-3.825,2.756
	C404.23,174.346,405.467,176.057,407.285,176.353 M409.438,163.043c1.814,0.293,3.527-0.942,3.82-2.759
	c0.295-1.82-0.938-3.531-2.758-3.825c-1.818-0.295-3.533,0.941-3.824,2.759C406.381,161.04,407.617,162.75,409.438,163.043
	 M411.588,149.734c1.814,0.295,3.528-0.943,3.823-2.76c0.291-1.818-0.94-3.53-2.758-3.825c-1.822-0.293-3.532,0.942-3.825,2.763
	C408.534,147.729,409.768,149.441,411.588,149.734 M413.737,136.426c1.819,0.295,3.53-0.942,3.825-2.759
	c0.291-1.819-0.942-3.531-2.758-3.825c-1.823-0.297-3.533,0.94-3.828,2.759C410.686,134.422,411.918,136.133,413.737,136.426
	 M415.893,123.118c1.814,0.294,3.525-0.943,3.82-2.762c0.291-1.817-0.941-3.53-2.761-3.823c-1.815-0.293-3.528,0.941-3.823,2.761
	C412.836,121.111,414.072,122.824,415.893,123.118 M418.043,109.809c1.815,0.293,3.528-0.942,3.82-2.759
	c0.295-1.819-0.943-3.531-2.758-3.825c-1.819-0.295-3.532,0.941-3.827,2.76C414.986,107.804,416.221,109.516,418.043,109.809"/>
<path fill="#CED6D7" d="M421.068,106.866c-0.229,1.418-1.568,2.383-2.986,2.154l-17.987-2.907c-1.419-0.231-2.382-1.566-2.154-2.985
	c0.229-1.421,1.565-2.384,2.985-2.156l17.988,2.91C420.332,104.11,421.297,105.446,421.068,106.866"/>
<path fill="#E6E8EB" d="M418.885,103.875l-16.216-2.621c-0.616,0.386-1.073,1.011-1.198,1.784c-0.229,1.42,0.738,2.755,2.156,2.986
	l12.848,2.075c1.418,0.232,2.758-0.734,2.985-2.153C419.586,105.174,419.348,104.435,418.885,103.875"/>
<path fill="#B7BEC0" d="M403.654,102.787c0.075-0.471,0.244-0.899,0.45-1.301l-3.179-0.513c-0.072-0.012-0.143-0.009-0.211-0.014
	c-0.6,0.387-1.047,1.008-1.17,1.77c-0.229,1.418,0.736,2.755,2.154,2.983l2.567,0.415c0.063,0.011,0.119,0.005,0.179,0.012
	C403.772,105.203,403.457,104.013,403.654,102.787"/>
<path fill="#CED6D7" d="M418.914,120.195c-0.232,1.418-1.568,2.386-2.986,2.159l-17.987-2.911c-1.422-0.227-2.382-1.566-2.154-2.983
	c0.229-1.422,1.567-2.386,2.986-2.157l17.983,2.906C418.176,117.438,419.143,118.777,418.914,120.195"/>
<path fill="#E6E8EB" d="M416.73,117.206l-16.215-2.621c-0.617,0.386-1.074,1.012-1.199,1.786c-0.229,1.418,0.738,2.754,2.153,2.984
	l12.851,2.076c1.42,0.232,2.758-0.736,2.986-2.151C417.429,118.507,417.193,117.765,416.73,117.206"/>
<path fill="#B7BEC0" d="M401.5,116.116c0.075-0.47,0.244-0.897,0.45-1.3l-3.178-0.513c-0.073-0.01-0.146-0.009-0.212-0.012
	c-0.604,0.385-1.047,1.007-1.174,1.768c-0.229,1.416,0.74,2.755,2.154,2.983l2.573,0.417c0.058,0.007,0.121,0.004,0.177,0.011
	C401.619,118.535,401.305,117.343,401.5,116.116"/>
<path fill="#CED6D7" d="M416.756,133.524c-0.229,1.422-1.564,2.383-2.984,2.156l-17.985-2.906c-1.419-0.231-2.383-1.566-2.153-2.986
	c0.227-1.42,1.564-2.385,2.982-2.153l17.988,2.907C416.021,130.771,416.988,132.107,416.756,133.524"/>
<path fill="#E6E8EB" d="M414.576,130.536l-16.218-2.62c-0.612,0.384-1.073,1.011-1.196,1.785c-0.232,1.418,0.738,2.752,2.153,2.982
	l12.849,2.078c1.422,0.228,2.758-0.734,2.988-2.156C415.275,131.836,415.037,131.094,414.576,130.536"/>
<path fill="#B7BEC0" d="M399.346,129.449c0.076-0.47,0.245-0.898,0.447-1.3l-3.178-0.513c-0.07-0.012-0.139-0.008-0.213-0.015
	c-0.6,0.386-1.043,1.006-1.166,1.767c-0.232,1.419,0.736,2.755,2.15,2.984l2.571,0.417c0.062,0.008,0.123,0.005,0.181,0.009
	C399.465,131.866,399.146,130.676,399.346,129.449"/>
<path fill="#CED6D7" d="M414.604,146.858c-0.229,1.418-1.564,2.383-2.986,2.152l-17.985-2.906c-1.42-0.232-2.384-1.564-2.156-2.985
	c0.231-1.419,1.567-2.385,2.987-2.155l17.986,2.906C413.871,144.099,414.832,145.436,414.604,146.858"/>
<path fill="#E6E8EB" d="M412.422,143.867l-16.218-2.622c-0.612,0.383-1.073,1.013-1.196,1.785c-0.232,1.42,0.735,2.755,2.154,2.984
	l12.848,2.076c1.422,0.231,2.758-0.734,2.988-2.152C413.121,145.167,412.883,144.425,412.422,143.867"/>
<path fill="#B7BEC0" d="M397.191,142.777c0.076-0.471,0.245-0.897,0.447-1.299l-3.176-0.514c-0.072-0.014-0.143-0.008-0.211-0.014
	c-0.603,0.387-1.049,1.009-1.172,1.768c-0.229,1.421,0.738,2.756,2.154,2.987l2.57,0.413c0.061,0.009,0.119,0.005,0.18,0.009
	C397.311,145.196,396.994,144.004,397.191,142.777"/>
<path fill="#CED6D7" d="M412.449,160.186c-0.232,1.42-1.566,2.384-2.986,2.155l-17.987-2.907c-1.418-0.229-2.384-1.566-2.151-2.986
	c0.229-1.418,1.563-2.383,2.981-2.153l17.989,2.908C411.713,157.432,412.681,158.769,412.449,160.186"/>
<path fill="#E6E8EB" d="M410.266,157.197l-16.217-2.621c-0.611,0.386-1.07,1.013-1.197,1.784c-0.23,1.421,0.737,2.757,2.155,2.984
	l12.849,2.078c1.418,0.229,2.758-0.736,2.985-2.152C410.967,158.494,410.729,157.755,410.266,157.197"/>
<path fill="#B7BEC0" d="M395.035,156.111c0.078-0.472,0.247-0.903,0.453-1.303l-3.182-0.512c-0.071-0.012-0.143-0.008-0.213-0.014
	c-0.6,0.385-1.045,1.006-1.168,1.767c-0.23,1.42,0.738,2.755,2.154,2.984l2.567,0.416c0.063,0.01,0.122,0.005,0.183,0.011
	C395.156,158.526,394.838,157.335,395.035,156.111"/>
<path fill="#CED6D7" d="M410.295,173.517c-0.229,1.419-1.568,2.383-2.986,2.155l-17.985-2.908c-1.421-0.229-2.386-1.566-2.157-2.984
	c0.23-1.421,1.567-2.385,2.987-2.156l17.987,2.91C409.559,170.76,410.523,172.098,410.295,173.517"/>
<path fill="#E6E8EB" d="M408.111,170.528l-16.215-2.621c-0.613,0.382-1.074,1.012-1.197,1.783c-0.23,1.42,0.735,2.755,2.152,2.987
	l12.85,2.078c1.422,0.229,2.758-0.738,2.985-2.158C408.813,171.826,408.572,171.085,408.111,170.528"/>
<path fill="#B7BEC0" d="M392.881,169.438c0.075-0.469,0.247-0.895,0.451-1.299l-3.179-0.515c-0.071-0.01-0.146-0.007-0.214-0.012
	c-0.601,0.386-1.047,1.009-1.168,1.768c-0.231,1.418,0.736,2.755,2.152,2.984l2.568,0.417c0.064,0.009,0.123,0.004,0.184,0.009
	C393,171.855,392.682,170.666,392.881,169.438"/>
<path fill="#CED6D7" d="M408.141,186.847c-0.23,1.418-1.566,2.383-2.986,2.153l-17.988-2.907c-1.418-0.227-2.381-1.566-2.152-2.982
	c0.23-1.419,1.565-2.386,2.986-2.158l17.986,2.908C407.404,184.091,408.369,185.429,408.141,186.847"/>
<path fill="#E6E8EB" d="M405.957,183.856l-16.216-2.621c-0.612,0.384-1.073,1.016-1.198,1.785c-0.229,1.419,0.736,2.756,2.156,2.985
	l12.848,2.075c1.42,0.233,2.758-0.731,2.986-2.153C406.655,185.158,406.422,184.416,405.957,183.856"/>
<path fill="#B7BEC0" d="M390.727,182.77c0.075-0.472,0.247-0.9,0.449-1.302L388,180.954c-0.073-0.013-0.145-0.007-0.213-0.013
	c-0.6,0.388-1.047,1.007-1.17,1.767c-0.233,1.422,0.736,2.758,2.154,2.986l2.568,0.414c0.062,0.011,0.121,0.007,0.178,0.014
	C390.845,185.187,390.529,183.998,390.727,182.77"/>
<path fill="#CED6D7" d="M405.986,200.177c-0.229,1.421-1.566,2.385-2.988,2.156l-17.984-2.908c-1.42-0.228-2.383-1.564-2.155-2.986
	c0.229-1.417,1.566-2.384,2.984-2.153l17.987,2.906C405.252,197.422,406.213,198.758,405.986,200.177"/>
<path fill="#E6E8EB" d="M403.803,197.188l-16.216-2.621c-0.612,0.386-1.073,1.014-1.198,1.784c-0.229,1.418,0.736,2.756,2.154,2.984
	l12.852,2.079c1.418,0.228,2.754-0.736,2.983-2.155C404.502,198.489,404.264,197.746,403.803,197.188"/>
<path fill="#B7BEC0" d="M388.572,196.099c0.075-0.469,0.244-0.899,0.45-1.3l-3.18-0.513c-0.071-0.012-0.142-0.008-0.214-0.012
	c-0.596,0.386-1.045,1.006-1.166,1.765c-0.23,1.421,0.736,2.758,2.154,2.987l2.569,0.414c0.062,0.01,0.12,0.007,0.177,0.01
	C388.69,198.517,388.373,197.326,388.572,196.099"/>
<path fill="#CED6D7" d="M403.83,213.509c-0.23,1.42-1.564,2.383-2.982,2.152l-17.989-2.907c-1.418-0.228-2.384-1.565-2.153-2.983
	c0.229-1.422,1.565-2.385,2.985-2.156l17.985,2.91C403.094,210.752,404.061,212.087,403.83,213.509"/>
<path fill="#E6E8EB" d="M401.646,210.518l-16.213-2.622c-0.615,0.385-1.074,1.013-1.199,1.785c-0.229,1.42,0.736,2.755,2.153,2.986
	l12.849,2.076c1.418,0.23,2.76-0.734,2.989-2.154C402.348,211.819,402.113,211.078,401.646,210.518"/>
<path fill="#B7BEC0" d="M386.418,209.43c0.074-0.472,0.245-0.897,0.45-1.3l-3.178-0.515c-0.073-0.011-0.144-0.008-0.212-0.011
	c-0.604,0.386-1.049,1.007-1.172,1.765c-0.229,1.418,0.738,2.757,2.154,2.987l2.567,0.413c0.063,0.012,0.123,0.007,0.183,0.014
	C386.537,211.848,386.219,210.655,386.418,209.43"/>
<path fill="#CED6D7" d="M401.676,226.838c-0.229,1.418-1.564,2.384-2.986,2.156l-17.985-2.906c-1.421-0.23-2.386-1.57-2.155-2.988
	s1.567-2.383,2.985-2.154l17.987,2.907C400.939,224.083,401.905,225.42,401.676,226.838"/>
<path fill="#E6E8EB" d="M399.494,223.85l-16.215-2.622c-0.615,0.383-1.074,1.012-1.199,1.785c-0.23,1.419,0.737,2.756,2.153,2.983
	l12.849,2.078c1.422,0.229,2.758-0.737,2.986-2.155C400.193,225.148,399.955,224.406,399.494,223.85"/>
<path fill="#B7BEC0" d="M384.264,222.762c0.076-0.472,0.245-0.897,0.449-1.302l-3.178-0.513c-0.072-0.009-0.145-0.009-0.213-0.012
	c-0.603,0.386-1.047,1.008-1.17,1.765c-0.23,1.42,0.736,2.757,2.152,2.987l2.572,0.414c0.061,0.01,0.122,0.005,0.177,0.01
	C384.38,225.179,384.064,223.987,384.264,222.762"/>
<path fill="#CED6D7" d="M399.521,240.17c-0.229,1.42-1.566,2.382-2.986,2.154l-17.986-2.907c-1.42-0.231-2.383-1.566-2.154-2.985
	c0.229-1.42,1.567-2.386,2.984-2.156l17.988,2.908C398.785,237.413,399.75,238.75,399.521,240.17"/>
<path fill="#E6E8EB" d="M397.338,237.179l-16.216-2.62c-0.612,0.383-1.071,1.014-1.196,1.783c-0.23,1.42,0.735,2.755,2.153,2.984
	l12.849,2.08c1.422,0.227,2.758-0.736,2.986-2.158C398.036,238.48,397.801,237.737,397.338,237.179"/>
<path fill="#B7BEC0" d="M382.107,236.092c0.076-0.472,0.246-0.9,0.451-1.302l-3.18-0.514c-0.069-0.011-0.143-0.006-0.211-0.013
	c-0.6,0.386-1.049,1.009-1.168,1.767c-0.231,1.42,0.736,2.756,2.152,2.986l2.568,0.415c0.062,0.011,0.123,0.005,0.18,0.011
	C382.227,238.51,381.91,237.317,382.107,236.092"/>
<path fill="#CED6D7" d="M397.367,253.5c-0.232,1.418-1.566,2.383-2.986,2.155l-17.986-2.905c-1.418-0.233-2.383-1.57-2.155-2.989
	c0.229-1.418,1.567-2.383,2.985-2.155l17.986,2.91C396.633,250.746,397.594,252.081,397.367,253.5"/>
<path fill="#E6E8EB" d="M395.186,250.511l-16.218-2.622c-0.612,0.383-1.071,1.011-1.198,1.785c-0.229,1.419,0.737,2.755,2.152,2.986
	l12.852,2.076c1.42,0.229,2.758-0.736,2.986-2.154C395.886,251.812,395.648,251.069,395.186,250.511"/>
<path fill="#B7BEC0" d="M379.955,249.42c0.076-0.472,0.244-0.897,0.447-1.299l-3.178-0.514c-0.071-0.013-0.143-0.009-0.211-0.013
	c-0.603,0.386-1.045,1.008-1.168,1.77c-0.231,1.418,0.733,2.754,2.152,2.982l2.568,0.416c0.062,0.01,0.121,0.006,0.182,0.01
	C380.071,251.838,379.758,250.646,379.955,249.42"/>
<path fill="#CED6D7" d="M395.211,266.83c-0.23,1.419-1.564,2.384-2.984,2.156l-17.987-2.91c-1.42-0.228-2.384-1.566-2.154-2.985
	c0.229-1.417,1.564-2.384,2.986-2.154l17.987,2.908C394.477,264.073,395.441,265.412,395.211,266.83"/>
<path fill="#E6E8EB" d="M393.029,263.839l-16.216-2.621c-0.614,0.387-1.073,1.016-1.196,1.784c-0.231,1.422,0.736,2.755,2.154,2.985
	l12.848,2.079c1.42,0.229,2.758-0.736,2.986-2.156C393.729,265.139,393.492,264.399,393.029,263.839"/>
<path fill="#B7BEC0" d="M377.799,262.752c0.075-0.471,0.248-0.9,0.45-1.302l-3.178-0.513c-0.071-0.012-0.144-0.006-0.212-0.009
	c-0.602,0.383-1.047,1.004-1.172,1.762c-0.229,1.422,0.74,2.759,2.154,2.985l2.569,0.417c0.063,0.009,0.121,0.006,0.181,0.014
	C377.919,265.169,377.602,263.981,377.799,262.752"/>
<path fill="#CED6D7" d="M393.059,280.159c-0.23,1.422-1.568,2.384-2.986,2.156l-17.987-2.91c-1.418-0.228-2.382-1.564-2.153-2.984
	c0.229-1.416,1.564-2.383,2.985-2.154l17.985,2.908C392.322,277.404,393.287,278.741,393.059,280.159"/>
<path fill="#E6E8EB" d="M390.875,277.172l-16.217-2.621c-0.613,0.384-1.072,1.011-1.195,1.784c-0.231,1.417,0.733,2.754,2.153,2.984
	l12.849,2.077c1.42,0.228,2.758-0.734,2.986-2.155C391.575,278.47,391.338,277.729,390.875,277.172"/>
<path fill="#B7BEC0" d="M375.645,276.083c0.076-0.471,0.247-0.899,0.448-1.302l-3.176-0.513c-0.073-0.012-0.144-0.009-0.212-0.014
	c-0.602,0.388-1.051,1.008-1.17,1.769c-0.23,1.417,0.738,2.757,2.15,2.985l2.571,0.414c0.063,0.012,0.123,0.007,0.181,0.012
	C375.762,278.499,375.445,277.311,375.645,276.083"/>
<path fill="#CED6D7" d="M390.902,293.491c-0.229,1.418-1.566,2.383-2.982,2.154l-17.988-2.908c-1.422-0.23-2.383-1.564-2.154-2.983
	s1.565-2.385,2.984-2.155l17.988,2.906C390.166,290.736,391.131,292.071,390.902,293.491"/>
<path fill="#E6E8EB" d="M388.721,290.502l-16.215-2.622c-0.615,0.383-1.072,1.012-1.199,1.785c-0.229,1.419,0.737,2.755,2.155,2.984
	l12.847,2.076c1.422,0.232,2.758-0.734,2.986-2.152C389.42,291.801,389.184,291.057,388.721,290.502"/>
<path fill="#B7BEC0" d="M373.49,289.413c0.076-0.472,0.245-0.897,0.45-1.299l-3.179-0.515c-0.071-0.011-0.145-0.01-0.213-0.013
	c-0.602,0.386-1.047,1.006-1.168,1.768c-0.231,1.421,0.734,2.755,2.15,2.987l2.573,0.411c0.062,0.013,0.121,0.007,0.176,0.013
	C373.608,291.831,373.291,290.64,373.49,289.413"/>
<path fill="#CED6D7" d="M388.75,306.822c-0.23,1.417-1.566,2.383-2.986,2.154l-17.988-2.908c-1.417-0.23-2.383-1.567-2.152-2.984
	c0.229-1.42,1.564-2.387,2.982-2.157l17.988,2.91C388.012,304.063,388.979,305.402,388.75,306.822"/>
<path fill="#E6E8EB" d="M386.564,303.832l-16.214-2.621c-0.612,0.384-1.075,1.013-1.198,1.784c-0.23,1.421,0.737,2.757,2.154,2.984
	l12.85,2.078c1.42,0.229,2.756-0.735,2.983-2.154C387.266,305.129,387.029,304.389,386.564,303.832"/>
<path fill="#B7BEC0" d="M371.336,302.743c0.073-0.472,0.244-0.9,0.449-1.301l-3.18-0.515c-0.071-0.01-0.141-0.005-0.211-0.01
	c-0.601,0.387-1.047,1.006-1.17,1.766c-0.229,1.421,0.738,2.756,2.156,2.984l2.566,0.416c0.062,0.009,0.121,0.007,0.182,0.012
	C371.455,305.161,371.139,303.969,371.336,302.743"/>
<path fill="#CED6D7" d="M386.594,320.151c-0.229,1.419-1.564,2.382-2.986,2.154l-17.984-2.909c-1.422-0.228-2.385-1.564-2.157-2.982
	c0.232-1.42,1.569-2.385,2.986-2.156l17.987,2.909C385.857,317.396,386.822,318.734,386.594,320.151"/>
<path fill="#E6E8EB" d="M384.412,317.162l-16.218-2.622c-0.612,0.386-1.073,1.014-1.196,1.782c-0.231,1.423,0.737,2.757,2.154,2.988
	L382,321.387c1.42,0.23,2.758-0.736,2.987-2.155C385.111,318.462,384.873,317.72,384.412,317.162"/>
<path fill="#B7BEC0" d="M369.182,316.075c0.075-0.473,0.246-0.9,0.448-1.302l-3.178-0.514c-0.071-0.012-0.142-0.009-0.21-0.012
	c-0.604,0.385-1.047,1.008-1.172,1.768c-0.229,1.417,0.736,2.756,2.154,2.984l2.567,0.417c0.065,0.009,0.124,0.002,0.183,0.009
	C369.3,318.492,368.982,317.301,369.182,316.075"/>
<path fill="#CED6D7" d="M384.439,333.482c-0.23,1.421-1.566,2.383-2.986,2.154l-17.987-2.906c-1.418-0.229-2.382-1.565-2.152-2.984
	c0.229-1.422,1.565-2.386,2.985-2.158l17.986,2.91C383.703,330.725,384.668,332.062,384.439,333.482"/>
<path fill="#E6E8EB" d="M382.256,330.491l-16.215-2.618c-0.613,0.381-1.072,1.01-1.199,1.783c-0.228,1.418,0.738,2.756,2.156,2.984
	l12.848,2.076c1.42,0.231,2.758-0.734,2.986-2.154C382.958,331.793,382.719,331.051,382.256,330.491"/>
<path fill="#B7BEC0" d="M367.027,329.404c0.075-0.472,0.244-0.898,0.448-1.302l-3.177-0.515c-0.074-0.012-0.143-0.008-0.215-0.012
	c-0.598,0.385-1.045,1.008-1.168,1.767c-0.23,1.421,0.736,2.758,2.154,2.985l2.567,0.416c0.063,0.01,0.123,0.006,0.181,0.012
	C367.146,331.822,366.828,330.633,367.027,329.404"/>
<path fill="#CED6D7" d="M382.285,346.812c-0.232,1.42-1.566,2.383-2.986,2.154l-17.985-2.908c-1.42-0.229-2.384-1.564-2.155-2.984
	c0.23-1.418,1.567-2.383,2.985-2.152l17.987,2.904C381.549,344.059,382.514,345.395,382.285,346.812"/>
<path fill="#E6E8EB" d="M380.102,343.822l-16.215-2.62c-0.613,0.384-1.072,1.014-1.199,1.784c-0.228,1.418,0.737,2.756,2.153,2.984
	l12.853,2.078c1.42,0.227,2.754-0.736,2.982-2.156C380.804,345.122,380.564,344.383,380.102,343.822"/>
<path fill="#B7BEC0" d="M364.873,342.734c0.074-0.47,0.245-0.898,0.448-1.3l-3.177-0.513c-0.074-0.012-0.143-0.008-0.215-0.016
	c-0.602,0.387-1.045,1.008-1.166,1.769c-0.234,1.418,0.734,2.758,2.152,2.983l2.569,0.416c0.06,0.01,0.121,0.006,0.178,0.012
	C364.99,345.152,364.674,343.961,364.873,342.734"/>
<path fill="#CED6D7" d="M380.131,360.145c-0.229,1.418-1.566,2.383-2.986,2.152l-17.986-2.904c-1.42-0.231-2.385-1.567-2.156-2.986
	c0.23-1.419,1.567-2.385,2.987-2.154l17.987,2.906C379.396,357.389,380.359,358.725,380.131,360.145"/>
<path fill="#E6E8EB" d="M377.947,357.152l-16.216-2.621c-0.612,0.385-1.073,1.013-1.198,1.787c-0.229,1.418,0.737,2.755,2.154,2.984
	l12.852,2.077c1.418,0.228,2.756-0.737,2.984-2.155C378.648,358.452,378.408,357.711,377.947,357.152"/>
<path fill="#B7BEC0" d="M362.717,356.066c0.076-0.473,0.247-0.9,0.447-1.301l-3.175-0.514c-0.07-0.014-0.142-0.008-0.212-0.016
	c-0.603,0.387-1.047,1.01-1.17,1.771c-0.229,1.416,0.736,2.755,2.152,2.985l2.57,0.412c0.062,0.012,0.121,0.008,0.18,0.014
	C362.836,358.481,362.52,357.291,362.717,356.066"/>
<path fill="#CED6D7" d="M377.977,373.473c-0.229,1.419-1.568,2.385-2.984,2.156l-17.99-2.908c-1.42-0.228-2.383-1.567-2.152-2.985
	c0.23-1.42,1.564-2.383,2.986-2.151l17.984,2.905C377.242,370.719,378.206,372.055,377.977,373.473"/>
<path fill="#E6E8EB" d="M375.793,370.484l-16.218-2.621c-0.612,0.387-1.073,1.012-1.194,1.781c-0.23,1.422,0.734,2.758,2.152,2.989
	l12.85,2.075c1.42,0.229,2.756-0.735,2.985-2.155C376.492,371.785,376.254,371.041,375.793,370.484"/>
<path fill="#B7BEC0" d="M360.564,369.396c0.075-0.472,0.244-0.9,0.446-1.302l-3.175-0.511c-0.073-0.012-0.145-0.012-0.213-0.016
	c-0.6,0.387-1.049,1.006-1.172,1.767c-0.228,1.42,0.738,2.757,2.153,2.985l2.57,0.416c0.063,0.008,0.122,0.004,0.181,0.012
	C360.681,371.814,360.367,370.621,360.564,369.396"/>
<path fill="#CED6D7" d="M375.82,386.803c-0.229,1.422-1.566,2.385-2.984,2.156l-17.986-2.908c-1.421-0.229-2.385-1.563-2.155-2.983
	c0.229-1.421,1.565-2.384,2.985-2.155l17.986,2.907C375.084,384.047,376.049,385.383,375.82,386.803"/>
<path fill="#E6E8EB" d="M373.637,383.814l-16.214-2.621c-0.614,0.384-1.073,1.015-1.198,1.785c-0.229,1.418,0.736,2.754,2.156,2.982
	l12.846,2.077c1.422,0.229,2.758-0.733,2.987-2.153C374.339,385.115,374.1,384.372,373.637,383.814"/>
<path fill="#B7BEC0" d="M358.408,382.727c0.075-0.473,0.246-0.899,0.45-1.303l-3.179-0.513c-0.07-0.01-0.143-0.008-0.213-0.013
	c-0.6,0.386-1.045,1.007-1.17,1.768c-0.229,1.42,0.738,2.754,2.154,2.984l2.571,0.416c0.062,0.01,0.122,0.008,0.177,0.011
	C358.526,385.143,358.209,383.953,358.408,382.727"/>
<path fill="#CED6D7" d="M373.666,400.135c-0.229,1.419-1.566,2.383-2.984,2.152l-17.985-2.906c-1.422-0.229-2.386-1.564-2.156-2.984
	c0.229-1.418,1.566-2.383,2.984-2.154l17.987,2.907C372.93,397.377,373.895,398.717,373.666,400.135"/>
<path fill="#E6E8EB" d="M371.484,397.146l-16.215-2.623c-0.615,0.384-1.074,1.014-1.199,1.785c-0.229,1.418,0.736,2.755,2.153,2.986
	l12.851,2.076c1.42,0.229,2.756-0.738,2.984-2.154C372.185,398.446,371.947,397.704,371.484,397.146"/>
<path fill="#B7BEC0" d="M356.252,396.054c0.076-0.468,0.247-0.896,0.452-1.299l-3.18-0.513c-0.071-0.014-0.142-0.008-0.212-0.014
	c-0.602,0.387-1.047,1.008-1.17,1.769c-0.229,1.417,0.736,2.755,2.154,2.983l2.571,0.416c0.062,0.012,0.119,0.006,0.177,0.012
	C356.371,398.475,356.055,397.283,356.252,396.054"/>
<polygon fill="#EDF0F4" points="595.205,437.377 384.269,403.283 432.483,104.959 643.426,139.052 "/>
<rect x="428.594" y="295.387" transform="matrix(0.9872 0.1595 -0.1595 0.9872 53.842 -77.1165)" fill="#B7BEC0" width="157.254" height="2.792"/>
<rect x="427.756" y="300.748" transform="matrix(0.9872 0.1595 -0.1595 0.9872 54.7191 -77.2443)" fill="#B7BEC0" width="161.285" height="2.786"/>
<rect x="426.962" y="305.515" transform="matrix(0.9872 0.1596 -0.1596 0.9872 55.4499 -76.7909)" fill="#B7BEC0" width="157.926" height="2.786"/>
<rect x="426.548" y="305.572" transform="matrix(0.9872 0.1596 -0.1596 0.9872 55.0556 -71.7485)" fill="#B7BEC0" width="95.536" height="2.785"/>
<rect x="430.586" y="282.444" transform="matrix(0.9872 0.1596 -0.1596 0.9872 51.6731 -77.6777)" fill="#B7BEC0" width="157.922" height="0.986"/>
<rect x="448.693" y="169.651" transform="matrix(0.9872 0.1596 -0.1596 0.9872 34.0717 -82.2652)" fill="#B7BEC0" width="161.282" height="2.789"/>
<polygon fill="#B7BEC0" points="580.863,185.952 448.688,164.59 449.136,161.838 581.311,183.202 "/>
<polygon fill="#969B9D" points="554.117,157.843 452.437,141.41 453.157,136.935 554.836,153.37 "/>
<rect x="421.8" y="337.433" transform="matrix(0.9872 0.1596 -0.1596 0.9872 60.4808 -75.5139)" fill="#B7BEC0" width="157.253" height="2.786"/>
<polygon fill="#B7BEC0" points="580.992,358.424 421.769,332.688 422.219,329.938 581.437,355.672 "/>
<rect x="420.155" y="347.764" transform="matrix(0.9872 0.1595 -0.1595 0.9872 62.1205 -75.4264)" fill="#B7BEC0" width="161.289" height="2.79"/>
<rect x="419.944" y="345.309" transform="matrix(0.9872 0.1596 -0.1596 0.9872 61.132 -67.9406)" fill="#B7BEC0" width="67.385" height="2.787"/>
<rect x="423.589" y="320.649" transform="matrix(0.9872 0.1596 -0.1596 0.9872 57.4347 -69.445)" fill="#969B9D" width="75.103" height="4.531"/>
<rect x="417.423" y="357.851" transform="matrix(0.9872 0.1596 -0.1596 0.9872 63.1592 -66.1322)" fill="#CED6D7" width="51.696" height="4.532"/>
<rect x="415.934" y="367.058" transform="matrix(0.9872 0.1595 -0.1595 0.9872 64.5829 -65.7533)" fill="#CED6D7" width="51.697" height="4.535"/>
<rect x="414.446" y="376.266" transform="matrix(0.9872 0.1595 -0.1595 0.9872 66.019 -65.3862)" fill="#CED6D7" width="51.695" height="4.535"/>
<rect x="417.558" y="356.16" transform="matrix(0.9872 0.1596 -0.1596 0.9872 62.7368 -64.4699)" fill="#2CC0D5" width="30.528" height="4.533"/>
<rect x="415.964" y="366.68" transform="matrix(0.9872 0.1595 -0.1595 0.9872 64.4852 -65.379)" fill="#F3B840" width="46.965" height="4.535"/>
<rect x="414.674" y="373.426" transform="matrix(0.9872 0.1596 -0.1596 0.9872 65.3625 -62.6362)" fill="#49505A" width="16.084" height="4.535"/>
<rect x="440.375" y="263.784" transform="matrix(0.9872 0.1596 -0.1596 0.9872 48.0504 -67.9814)" fill="#B7BEC0" width="13.821" height="2.786"/>
<polygon fill="#B7BEC0" points="480.561,271.966 466.918,269.761 467.361,267.01 481.001,269.214 "/>
<rect x="496.06" y="272.783" transform="matrix(0.9872 0.1595 -0.1595 0.9872 50.1593 -76.6993)" fill="#B7BEC0" width="13.818" height="2.788"/>
<polygon fill="#B7BEC0" points="588.535,289.418 574.892,287.216 575.34,284.462 588.982,286.666 "/>
<rect x="473.434" y="371.165" transform="matrix(0.9872 0.1595 -0.1595 0.9872 66.174 -79.1053)" fill="#B7BEC0" width="104.595" height="2.789"/>
<rect x="472.644" y="375.908" transform="matrix(0.9872 0.1595 -0.1595 0.9872 66.897 -78.6246)" fill="#B7BEC0" width="100.91" height="2.788"/>
<rect x="471.805" y="381.237" transform="matrix(0.9872 0.1596 -0.1596 0.9872 67.7642 -78.7207)" fill="#B7BEC0" width="104.595" height="2.788"/>
<polygon fill="#B7BEC0" points="571.66,396.895 471.438,380.696 471.885,377.945 572.108,394.145 "/>
<rect x="470.382" y="388.765" transform="matrix(0.9872 0.1596 -0.1596 0.9872 68.7531 -75.8636)" fill="#B7BEC0" width="72.715" height="2.787"/>
<rect x="432.594" y="260.584" transform="matrix(0.9871 0.16 -0.16 0.9871 47.7253 -66.2489)" fill="#F3B840" width="5.298" height="5.294"/>
<rect x="459.191" y="264.882" transform="matrix(0.9872 0.1595 -0.1595 0.9872 48.5811 -70.2356)" fill="#49505A" width="5.296" height="5.296"/>
<rect x="488.045" y="269.546" transform="matrix(0.9871 0.16 -0.16 0.9871 49.8737 -75.0059)" fill="#2CC0D5" width="5.298" height="5.295"/>
<rect x="433.16" y="266.651" transform="matrix(0.9872 0.1595 -0.1595 0.9872 49.1665 -78.3224)" fill="#B7BEC0" width="158.357" height="0.747"/>
<rect x="440.118" y="175.722" transform="matrix(0.9873 0.1591 -0.1591 0.9873 39.8633 -67.3349)" fill="#B7BEC0" width="0.746" height="79.176"/>
<rect x="442.013" y="232.816" transform="matrix(0.9872 0.1594 -0.1594 0.9872 44.5844 -67.7397)" fill="#2CC0D5" width="4.854" height="22.321"/>
<rect x="447.53" y="240.783" transform="matrix(0.9872 0.1597 -0.1597 0.9872 45.4584 -68.6815)" fill="#49505A" width="4.851" height="15.292"/>
<rect x="455.992" y="212.033" transform="matrix(0.9872 0.1593 -0.1593 0.9872 43.2436 -70.0452)" fill="#F3B840" width="4.851" height="45.215"/>
<rect x="468.019" y="221.241" transform="matrix(0.9872 0.1593 -0.1593 0.9872 44.2894 -71.8899)" fill="#2CC0D5" width="4.851" height="37.998"/>
<rect x="473.444" y="230.341" transform="matrix(0.9872 0.1596 -0.1596 0.9872 45.2434 -72.8065)" fill="#49505A" width="4.855" height="29.828"/>
<rect x="479.792" y="227.929" transform="matrix(0.9872 0.1596 -0.1596 0.9872 45.2123 -73.8286)" fill="#F3B840" width="4.855" height="33.245"/>
<rect x="492.182" y="232.608" transform="matrix(0.9872 0.1596 -0.1596 0.9872 45.8953 -75.7488)" fill="#2CC0D5" width="4.856" height="30.585"/>
<rect x="497.725" y="240.29" transform="matrix(0.9872 0.1597 -0.1597 0.9872 46.707 -76.6505)" fill="#49505A" width="4.851" height="23.842"/>
<rect x="505.504" y="220.037" transform="matrix(0.9872 0.1594 -0.1594 0.9872 45.1738 -77.8649)" fill="#F3B840" width="4.855" height="45.214"/>
<rect x="519.828" y="200.648" transform="matrix(0.9872 0.1594 -0.1594 0.9872 43.9952 -80.2735)" fill="#2CC0D5" width="4.854" height="66.779"/>
<rect x="524.276" y="221.925" transform="matrix(0.9872 0.1597 -0.1597 0.9872 45.8913 -80.952)" fill="#49505A" width="4.853" height="46.354"/>
<rect x="531.35" y="210.446" transform="matrix(0.9872 0.1597 -0.1597 0.9872 45.1505 -82.1483)" fill="#F3B840" width="4.853" height="58.895"/>
<polygon fill="#2CC0D5" points="544.076,271.388 539.291,270.614 542.575,250.265 547.367,251.039 "/>
<rect x="546.097" y="262.449" transform="matrix(0.9872 0.1597 -0.1597 0.9872 49.7296 -84.1839)" fill="#49505A" width="4.851" height="9.595"/>
<rect x="553.105" y="251.824" transform="matrix(0.9872 0.1596 -0.1596 0.9872 49.0086 -85.2964)" fill="#F3B840" width="4.849" height="21.276"/>
<rect x="567.042" y="237.249" transform="matrix(0.9872 0.1597 -0.1597 0.9872 48.2325 -87.6574)" fill="#2CC0D5" width="4.858" height="37.995"/>
<rect x="575.378" y="210.107" transform="matrix(0.9872 0.1597 -0.1597 0.9872 46.2526 -89.1349)" fill="#49505A" width="4.853" height="66.302"/>
<rect x="580.021" y="228.923" transform="matrix(0.9872 0.1595 -0.1595 0.9872 47.8153 -89.6437)" fill="#F3B840" width="4.853" height="48.352"/>
<rect x="151.29" y="78.738" transform="matrix(0.9872 0.1595 -0.1595 0.9872 39.9766 -38.2398)" fill="#EDF0F4" width="213.677" height="302.197"/>
<rect x="160.601" y="330.029" transform="matrix(0.9872 0.1596 -0.1596 0.9872 55.9473 -33.9253)" fill="#B7BEC0" width="157.251" height="2.785"/>
<rect x="159.761" y="335.381" transform="matrix(0.9872 0.1595 -0.1595 0.9872 56.808 -34.0403)" fill="#B7BEC0" width="161.287" height="2.79"/>
<rect x="158.968" y="340.15" transform="matrix(0.9872 0.1596 -0.1596 0.9872 57.5488 -33.5902)" fill="#B7BEC0" width="157.926" height="2.787"/>
<rect x="158.554" y="340.209" transform="matrix(0.9872 0.1596 -0.1596 0.9872 57.1534 -28.5459)" fill="#B7BEC0" width="95.539" height="2.788"/>
<rect x="180.63" y="204.709" transform="matrix(0.9872 0.1596 -0.1596 0.9872 36.2338 -39.0487)" fill="#B7BEC0" width="161.283" height="2.786"/>
<rect x="179.829" y="209.581" transform="matrix(0.9872 0.1595 -0.1595 0.9872 36.9828 -38.6926)" fill="#B7BEC0" width="159.268" height="2.791"/>
<rect x="179.003" y="214.78" transform="matrix(0.9872 0.1595 -0.1595 0.9872 37.8152 -38.6561)" fill="#B7BEC0" width="161.283" height="2.784"/>
<rect x="178.189" y="219.813" transform="matrix(0.9872 0.1596 -0.1596 0.9872 38.6095 -38.4629)" fill="#B7BEC0" width="161.284" height="2.79"/>
<rect x="177.393" y="224.633" transform="matrix(0.9872 0.1596 -0.1596 0.9872 39.351 -38.0595)" fill="#B7BEC0" width="158.594" height="2.788"/>
<rect x="176.561" y="229.887" transform="matrix(0.9872 0.1596 -0.1596 0.9872 40.2008 -38.0783)" fill="#B7BEC0" width="161.282" height="2.785"/>
<rect x="175.772" y="234.598" transform="matrix(0.9872 0.1596 -0.1596 0.9872 40.9138 -37.568)" fill="#B7BEC0" width="157.251" height="2.787"/>
<rect x="174.933" y="239.952" transform="matrix(0.9872 0.1595 -0.1595 0.9872 41.7782 -37.683)" fill="#B7BEC0" width="161.282" height="2.792"/>
<rect x="174.14" y="244.72" transform="matrix(0.9872 0.1596 -0.1596 0.9872 42.5122 -37.2313)" fill="#B7BEC0" width="157.922" height="2.788"/>
<rect x="164.142" y="307.493" transform="matrix(0.9872 0.1596 -0.1596 0.9872 52.2583 -34.8445)" fill="#B7BEC0" width="157.922" height="0.985"/>
<rect x="174.119" y="239.894" transform="matrix(0.9872 0.1596 -0.1596 0.9872 40.9484 -27.4242)" fill="#B7BEC0" width="34.269" height="2.785"/>
<rect x="244.174" y="164.588" transform="matrix(0.9872 0.1596 -0.1596 0.9872 30.2828 -45.1789)" fill="#B7BEC0" width="104.592" height="2.787"/>
<rect x="243.383" y="169.329" transform="matrix(0.9872 0.1596 -0.1596 0.9872 31.0044 -44.6967)" fill="#B7BEC0" width="100.908" height="2.787"/>
<rect x="242.546" y="174.656" transform="matrix(0.9872 0.1595 -0.1595 0.9872 31.8631 -44.7837)" fill="#B7BEC0" width="104.593" height="2.789"/>
<rect x="241.751" y="179.447" transform="matrix(0.9872 0.1595 -0.1595 0.9872 32.5974 -44.3507)" fill="#B7BEC0" width="101.523" height="2.786"/>
<rect x="241.404" y="178.671" transform="matrix(0.9872 0.1595 -0.1595 0.9872 32 -38.4894)" fill="#B7BEC0" width="28.646" height="2.786"/>
<rect x="192.977" y="128.322" transform="matrix(0.9872 0.1596 -0.1596 0.9872 24.2036 -41.9975)" fill="#B7BEC0" width="161.283" height="2.788"/>
<rect x="192.338" y="131.172" transform="matrix(0.9872 0.1596 -0.1596 0.9872 24.4739 -39.6729)" fill="#B7BEC0" width="133.892" height="2.787"/>
<rect x="196.422" y="103.792" transform="matrix(0.9872 0.1595 -0.1595 0.9872 20.0975 -38.1971)" fill="#969B9D" width="103" height="4.533"/>
<rect x="245.461" y="151.628" transform="matrix(0.9872 0.1596 -0.1596 0.9872 28.1248 -42.4727)" fill="#969B9D" width="66.146" height="4.531"/>
<rect x="225.497" y="280.137" transform="matrix(0.9872 0.1596 -0.1596 0.9872 48.4773 -40.7159)" fill="#B7BEC0" width="104.593" height="2.786"/>
<rect x="224.706" y="284.879" transform="matrix(0.9872 0.1596 -0.1596 0.9872 49.2041 -40.2379)" fill="#B7BEC0" width="100.91" height="2.787"/>
<rect x="223.869" y="290.207" transform="matrix(0.9872 0.1595 -0.1595 0.9872 50.0579 -40.3235)" fill="#B7BEC0" width="104.595" height="2.79"/>
<rect x="223.075" y="294.995" transform="matrix(0.9872 0.1595 -0.1595 0.9872 50.7938 -39.8917)" fill="#B7BEC0" width="101.521" height="2.789"/>
<rect x="222.445" y="297.733" transform="matrix(0.9872 0.1595 -0.1595 0.9872 51.0408 -37.4599)" fill="#B7BEC0" width="72.715" height="2.789"/>
<polygon fill="#B7BEC0" points="184.699,309.667 171.054,307.463 171.502,304.71 185.14,306.917 "/>
<rect x="197.865" y="310.108" transform="matrix(0.9872 0.1597 -0.1597 0.9872 52.3781 -28.7058)" fill="#B7BEC0" width="13.816" height="2.786"/>
<rect x="224.541" y="314.418" transform="matrix(0.9872 0.1595 -0.1595 0.9872 53.3203 -32.8658)" fill="#B7BEC0" width="13.819" height="2.788"/>
<rect x="251.212" y="318.729" transform="matrix(0.9872 0.1595 -0.1595 0.9872 54.349 -37.0635)" fill="#B7BEC0" width="13.819" height="2.79"/>
<rect x="226.916" y="265.548" transform="matrix(0.9872 0.1595 -0.1595 0.9872 45.9292 -36.422)" fill="#969B9D" width="45.734" height="4.532"/>
<path fill="#B7BEC0" d="M218.305,167.365c-0.68,1.311-1.602,2.436-2.736,3.326l5.666,11.369c4.211-2.575,7.578-6.493,9.381-11.284
	L218.305,167.365z"/>
<path fill="#49505A" d="M212.918,153.238c4.12,1.569,6.774,5.682,6.488,10.147l12.294,3.401c0.024-0.143,0.069-0.279,0.09-0.422
	c1.892-11.695-5.556-22.746-16.85-25.629L212.918,153.238z"/>
<path fill="#2CC0D5" d="M202.955,154.804c1.646-1.309,3.68-2.131,5.879-2.225l2.022-12.505c-6.774-0.478-13.164,2.088-17.699,6.623
	L202.955,154.804z"/>
<path fill="#F3B840" d="M211.869,172.542c-1.33,0.352-2.754,0.442-4.203,0.208c-5.555-0.897-9.334-6.108-8.441-11.646
	c0.183-1.131,0.588-2.157,1.092-3.12l-9.811-8.112c-1.854,2.674-3.172,5.792-3.728,9.219c-2,12.382,6.458,24.055,18.884,26.062
	c4.148,0.672,8.205,0.158,11.858-1.259L211.869,172.542z"/>
<rect x="166.75" y="276.715" transform="matrix(-0.9872 -0.1596 0.1596 -0.9872 294.071 590.3034)" fill="#49505A" width="7.995" height="13.249"/>
<rect x="179.605" y="265.926" transform="matrix(-0.9872 -0.1592 0.1592 -0.9872 320.4385 583.5606)" fill="#B7BEC0" width="7.991" height="26.031"/>
<rect x="191.074" y="272.373" transform="matrix(-0.9871 -0.1599 0.1599 -0.9871 342.3649 593.7589)" fill="#F3B840" width="7.989" height="21.467"/>
<rect x="204.035" y="260.217" transform="matrix(-0.9871 -0.1598 0.1598 -0.9871 368.9604 585.7333)" fill="#2CC0D5" width="7.993" height="35.628"/>
<rect x="163.408" y="302.595" transform="matrix(0.9872 0.1595 -0.1595 0.9872 50.8098 -22.5774)" fill="#F3B840" width="5.296" height="5.296"/>
<rect x="190.005" y="306.896" transform="matrix(0.9871 0.1599 -0.1599 0.9871 51.9685 -26.8197)" fill="#49505A" width="5.296" height="5.293"/>
<rect x="216.602" y="311.194" transform="matrix(0.9871 0.1598 -0.1598 0.9871 52.9776 -31.0071)" fill="#B7BEC0" width="5.298" height="5.295"/>
<rect x="243.202" y="315.491" transform="matrix(0.9872 0.1592 -0.1592 0.9872 53.7906 -35.0857)" fill="#2CC0D5" width="5.293" height="5.296"/>
<g>
	<defs>
		<path id="SVGID_1_" d="M-91.729,233.66c0,0,80.838,250.481,269.191,331.973c181.211,78.4,309.557-43.316,309.557-43.316
			L221.618,66.063L-91.729,233.66z"/>
	</defs>
	<clipPath id="SVGID_2_">
		<use xlink:href="#SVGID_1_"  overflow="visible"/>
	</clipPath>
	<path clip-path="url(#SVGID_2_)" fill="#A27B4C" d="M163.82,382.012l-21.937-26.906c-4.687-5.754-3.831-14.213,1.927-18.903
		l3.469-2.828c0.145-0.12,0.299-0.218,0.453-0.329l18.73,22.979L163.82,382.012z"/>
	<path clip-path="url(#SVGID_2_)" fill="#B68753" d="M151.707,385.47l3.232-31.728c0.302-3.001,1.59-5.661,3.486-7.717
		l14.103,17.303l-4.315,42.391L151.707,385.47z"/>
	<path clip-path="url(#SVGID_2_)" fill="#484F5A" d="M258.557,251.081c7.784-22.531,6.352-46.719-4.05-68.104
		c-10.425-21.437-28.599-37.531-51.198-45.305c-22.492-7.714-46.629-6.267-67.957,4.1C91.154,163.268,72.66,216.721,94.16,260.927
		c10.426,21.447,28.636,37.539,51.232,45.313c22.486,7.73,46.6,6.264,67.918-4.093C234.701,291.752,250.777,273.613,258.557,251.081
		 M149.475,294.397c-19.467-6.694-35.092-20.527-44.054-38.95c-18.49-38.002-2.601-83.943,35.394-102.397
		c18.346-8.91,39.09-10.161,58.414-3.511c19.438,6.678,35.062,20.501,44.016,38.905c8.945,18.386,10.191,39.167,3.473,58.55
		c-6.684,19.367-20.511,34.964-38.875,43.9C189.523,299.798,168.803,301.056,149.475,294.397"/>
	<path clip-path="url(#SVGID_2_)" fill="#F3B840" d="M93.557,455.592c-0.002-0.01-0.025,0-0.039-0.004
		c-9.474-3.291-13.828-15.605-9.718-27.52l32.226-93.164c4.131-11.896,15.119-18.875,24.584-15.624
		c0.013,0.017,0.028,0.017,0.049,0.014c9.468,3.295,13.83,15.607,9.705,27.507L118.137,440
		C114.027,451.871,103.023,458.85,93.557,455.592"/>
	<path clip-path="url(#SVGID_2_)" fill="#F3B840" d="M126.605,359.463c-0.012-0.004-0.027-0.004-0.041-0.008
		c-9.482-3.269-16.179-8.767-14.957-12.282l9.637-27.448c1.246-3.501,9.901-3.7,19.365-0.444c0.017,0.007,0.028,0.009,0.049,0.014
		c9.473,3.27,16.186,8.765,14.949,12.272l-9.637,27.458C144.738,362.522,136.068,362.72,126.605,359.463"/>
	<g opacity="0.2" clip-path="url(#SVGID_2_)">
		<g>
			<defs>
				<rect id="SVGID_3_" x="97.71" y="145.32" width="153.28" height="153.3"/>
			</defs>
			<clipPath id="SVGID_4_">
				<use xlink:href="#SVGID_3_"  overflow="visible"/>
			</clipPath>
			<path clip-path="url(#SVGID_4_)" fill="#FFFFFF" d="M199.229,149.539c-19.324-6.649-40.068-5.399-58.414,3.511
				c-37.994,18.454-53.884,64.396-35.394,102.397c8.962,18.424,24.587,32.257,44.054,38.95c19.328,6.66,40.049,5.401,58.367-3.503
				c18.365-8.936,32.191-24.532,38.875-43.899c6.718-19.384,5.473-40.164-3.473-58.55
				C234.291,170.04,218.666,156.217,199.229,149.539"/>
		</g>
	</g>
	<g opacity="0.2" clip-path="url(#SVGID_2_)">
		<g>
			<defs>
				<rect id="SVGID_5_" x="104.48" y="152.11" width="139.699" height="80.05"/>
			</defs>
			<clipPath id="SVGID_6_">
				<use xlink:href="#SVGID_5_"  overflow="visible"/>
			</clipPath>
			<path clip-path="url(#SVGID_6_)" fill="#FFFFFF" d="M108.611,217.344c6.102-17.651,18.686-31.851,35.432-39.985
				c16.718-8.12,35.627-9.257,53.238-3.201c17.674,6.075,31.906,18.638,40.078,35.367l0.047,0.092
				c3.168,6.512,5.262,13.353,6.295,20.32c1.545-13.102-0.654-26.389-6.561-38.527l-0.042-0.093
				c-8.175-16.733-22.406-29.289-40.077-35.364c-17.613-6.06-36.523-4.925-53.242,3.198c-16.746,8.13-29.328,22.334-35.428,39.982
				c-3.736,10.794-4.749,22.07-3.121,33.03C105.816,227.173,106.929,222.207,108.611,217.344"/>
		</g>
	</g>
	<path clip-path="url(#SVGID_2_)" fill="#5A6374" d="M105.422,255.447c-18.49-38.001-2.602-83.943,35.393-102.397
		c18.345-8.91,39.089-10.161,58.414-3.511c19.438,6.678,35.062,20.501,44.015,38.906l6.726-3.267c-0.026-0.05-0.05-0.092-0.07-0.141
		c-9.844-20.162-26.965-35.282-48.215-42.586c-21.211-7.283-43.989-5.919-64.119,3.861c-41.707,20.271-59.152,70.693-38.869,112.407
		l6.727-3.266V255.447z"/>
	<path clip-path="url(#SVGID_2_)" fill="#484F5A" d="M150.727,324.32c2.293-6.35,4.596-12.722,6.903-19.113
		c1.022-2.948,0.792-6.066-0.47-8.608c-2.578-0.607-5.137-1.356-7.678-2.227c-2.64-0.913-5.215-1.946-7.711-3.102
		c-2.559,1.215-4.67,3.514-5.688,6.45c-2.311,6.388-4.625,12.792-6.948,19.218c-2.127,6.134,1.64,10.31,7.782,12.332
		c0.008,0.006,0.02,0.011,0.02,0.011C143.066,331.399,148.635,330.416,150.727,324.32"/>
	<path clip-path="url(#SVGID_2_)" fill="#FEC144" d="M100.773,439.216l35.862-103.87c-0.517-0.158-1.038-0.326-1.562-0.507
		c-0.013-0.007-0.028-0.006-0.043-0.012c-3.656-1.259-6.89-2.851-9.425-4.534L89.371,435.234c-1.895,5.498-0.883,10.865,2.24,11.953
		l0.036,0.008C94.789,448.275,98.882,444.689,100.773,439.216"/>
	<path clip-path="url(#SVGID_2_)" fill="#B68753" d="M154.377,497.611l-55.209-67.727c-5.598-6.867-4.572-16.963,2.297-22.56
		l20.191-16.461c6.861-5.593,16.962-4.567,22.562,2.3l55.207,67.725L154.377,497.611z"/>
	<path clip-path="url(#SVGID_2_)" fill="#CED6D7" d="M188.436,570.279c0,0,40.366,21.675,127.367,21.675L184.809,431.26
		l-65.906,53.723L188.436,570.279z"/>
	
		<rect x="111.344" y="457.41" transform="matrix(-0.7751 0.6318 -0.6318 -0.7751 564.124 720.3568)" clip-path="url(#SVGID_2_)" fill="#CED6D7" width="85.027" height="6.334"/>
	<path clip-path="url(#SVGID_2_)" fill="#B68753" d="M96.83,342.296l9.165,11.243c1.206-0.898,2.464-1.675,3.771-2.311l-9.73-11.935
		c-3.173-3.896-2.59-9.628,1.307-12.803c3.891-3.173,9.625-2.59,12.799,1.303l23.609,28.962c0.228,0.254,0.469,0.497,0.688,0.766
		l24.265,29.768c8.247,10.118,6.736,25.005-3.382,33.252l-29.772,24.268c-10.115,8.25-25.004,6.733-33.252-3.388l-9.981-12.241
		L72.03,411.655l-12.829-15.737c-3.172-3.893-2.587-9.622,1.307-12.798c3.197-2.606,7.609-2.642,10.853-0.428
		c0.886-1.203,1.899-2.33,3.038-3.371l-3.941-4.835c-3.175-3.895-2.595-9.631,1.305-12.807c3.893-3.176,9.625-2.586,12.801,1.307
		l3.896,4.779l3.399-2.771l-9.134-11.203c-3.174-3.896-2.594-9.627,1.299-12.8C87.92,337.814,93.651,338.4,96.83,342.296"/>
</g>
</svg>
