<svg viewBox="0 0 52 101.35" xmlns="http://www.w3.org/2000/svg" fill="#000"><path d="M52.186 101.06l-11.194-6.308-11.221-6.322a2.168 2.168 0 0 1-1.106-1.866h-.008l-.136-12.879-.134-12.876c-.01-.878.5-1.639 1.247-1.99l10.914-6.455 11.085-6.557a2.168 2.168 0 0 1 2.184-.005l11.194 6.306 11.221 6.322a2.162 2.162 0 0 1 1.104 1.865h.01l.27 25.756a2.175 2.175 0 0 1-1.246 1.99l-22.002 13.012a2.164 2.164 0 0 1-2.182.007M1.43 45.589l11.194 6.307 11.221 6.321a2.163 2.163 0 0 1 1.104 1.866h.01l.136 12.877.134 12.879a2.17 2.17 0 0 1-1.247 1.989l-10.914 6.455-11.087 6.556a2.164 2.164 0 0 1-2.182.008l-11.194-6.308-11.22-6.322a2.17 2.17 0 0 1-1.107-1.866h-.008l-.135-12.879L-24 60.595a2.169 2.169 0 0 1 1.246-1.989l10.915-6.455 11.085-6.557M27.776 0l11.193 6.307 11.222 6.321a2.163 2.163 0 0 1 1.104 1.866h.01l.135 12.877.135 12.879a2.174 2.174 0 0 1-1.247 1.989l-10.914 6.455-11.087 6.557a2.164 2.164 0 0 1-2.182.008l-11.194-6.308-11.222-6.322a2.167 2.167 0 0 1-1.106-1.866h-.009L2.48 27.884l-.136-12.877a2.171 2.171 0 0 1 1.247-1.989l10.915-6.455L25.59.006"/></svg>
