<?xml version="1.0" encoding="utf-8"?>
<!-- Generator: Adobe Illustrator 16.0.0, SVG Export Plug-In . SVG Version: 6.00 Build 0)  -->
<!DOCTYPE svg PUBLIC "-//W3C//DTD SVG 1.1//EN" "http://www.w3.org/Graphics/SVG/1.1/DTD/svg11.dtd">
<svg version="1.1" id="Layer_1" xmlns="http://www.w3.org/2000/svg" xmlns:xlink="http://www.w3.org/1999/xlink" x="0px" y="0px"
	 width="49.202px" height="55.843px" viewBox="0 0 49.202 55.843" enable-background="new 0 0 49.202 55.843" xml:space="preserve">
<path fill="#F2F2F3" d="M23.756,55.55l-11.187-6.319L1.354,42.897c-0.698-0.395-1.095-1.117-1.103-1.867H0.242L0.121,28.151
	L0,15.273c-0.009-0.878,0.502-1.638,1.249-1.988L12.17,6.842l11.091-6.546c0.698-0.408,1.53-0.381,2.185-0.003l11.187,6.319
	l11.215,6.333c0.699,0.393,1.096,1.117,1.102,1.867h0.012l0.121,12.878l0.12,12.878c0.009,0.877-0.504,1.638-1.249,1.987L37.032,49
	l-11.093,6.546C25.241,55.954,24.409,55.928,23.756,55.55"/>
</svg>
