<svg version="1.1" id="bg-pattern" xmlns="http://www.w3.org/2000/svg" xmlns:xlink="http://www.w3.org/1999/xlink" x="0px" y="0px" viewBox="0 0 1683.036 327.465" enable-background="new 0 0 1683.036 327.465" xml:space="preserve">
            <path fill="#3dbeee"  d="M366.109,101.887l-11.188-6.319l-11.215-6.334c-0.697-0.394-1.096-1.117-1.104-1.867h-0.008l-0.121-12.879 l-0.121-12.878c-0.01-0.877,0.502-1.638,1.248-1.987l10.922-6.443l11.09-6.545c0.699-0.409,1.531-0.382,2.186-0.004l11.188,6.319 l11.213,6.334c0.699,0.393,1.098,1.116,1.104,1.866l0.01-0.001l0.121,12.878l0.121,12.88c0.01,0.876-0.504,1.637-1.248,1.987 l-10.922,6.443l-11.092,6.545C367.594,102.29,366.762,102.266,366.109,101.887"/>
            <path fill="#3dbeee"  d="M315.412,46.363l11.188,6.318l11.215,6.333c0.697,0.394,1.094,1.117,1.1,1.867h0.012l0.121,12.878 l0.121,12.878c0.01,0.877-0.504,1.639-1.25,1.988l-10.92,6.443l-11.094,6.546c-0.697,0.408-1.529,0.383-2.182,0.005l-11.188-6.32 l-11.214-6.334c-0.699-0.394-1.096-1.116-1.104-1.867l-0.009,0.001l-0.121-12.879l-0.121-12.879 c-0.009-0.877,0.502-1.637,1.249-1.986l10.921-6.443l11.093-6.546"/>
            <path fill="#3dbeee"  d="M341.807,0.803l11.186,6.318l11.215,6.333c0.699,0.394,1.096,1.118,1.102,1.868h0.012l0.121,12.877 l0.121,12.878c0.008,0.877-0.504,1.639-1.25,1.988l-10.92,6.443l-11.094,6.546c-0.697,0.408-1.529,0.383-2.184,0.005L328.93,49.74 l-11.215-6.334c-0.699-0.395-1.096-1.118-1.104-1.868h-0.01l-0.121-12.879l-0.121-12.877c-0.008-0.878,0.502-1.638,1.25-1.988 l10.92-6.443l11.092-6.545"/>
            <path fill="#3dbeee"  d="M394.562,0.823l11.188,6.318l11.213,6.333c0.699,0.394,1.098,1.117,1.104,1.867h0.01l0.121,12.878 l0.121,12.878c0.01,0.877-0.504,1.639-1.248,1.988l-10.922,6.443l-11.092,6.545c-0.699,0.409-1.531,0.384-2.184,0.006l-11.188-6.319 l-11.215-6.334c-0.697-0.395-1.096-1.118-1.104-1.868h-0.008l-0.121-12.879l-0.121-12.877c-0.01-0.877,0.502-1.638,1.248-1.988 l10.922-6.443l11.09-6.545"/>
            <path fill="#3dbeee"  d="M418.783,101.391l-11.188-6.319l-11.215-6.334c-0.699-0.394-1.096-1.117-1.104-1.867h-0.01l-0.119-12.879 l-0.121-12.877c-0.01-0.878,0.502-1.638,1.248-1.988l10.922-6.443l11.092-6.545c0.697-0.409,1.529-0.382,2.184-0.004l11.188,6.319 l11.215,6.334c0.697,0.393,1.094,1.116,1.1,1.866h0.012l0.121,12.877l0.121,12.88c0.01,0.876-0.504,1.637-1.25,1.987l-10.92,6.443 l-11.094,6.545C420.268,101.795,419.436,101.77,418.783,101.391"/>
            <path fill="#3dbeee"  d="M498.02,56.396l-11.186-6.319l-11.215-6.334c-0.699-0.394-1.096-1.118-1.104-1.868h-0.01l-0.121-12.878 l-0.121-12.877c-0.008-0.878,0.502-1.639,1.248-1.988l10.922-6.443l11.092-6.545c0.697-0.409,1.529-0.382,2.184-0.004l11.188,6.318 l11.215,6.335c0.699,0.393,1.096,1.116,1.102,1.866l0.012-0.001l0.121,12.878l0.121,12.879c0.008,0.876-0.504,1.638-1.25,1.988 l-10.92,6.443l-11.094,6.545C499.504,56.8,498.674,56.775,498.02,56.396"/>
            <path fill="#3dbeee"  d="M447.322,0.873l11.188,6.318l11.215,6.333c0.697,0.394,1.096,1.117,1.102,1.867h0.01l0.121,12.878 l0.123,12.879c0.008,0.876-0.506,1.638-1.25,1.987l-10.922,6.443l-11.092,6.546c-0.699,0.408-1.531,0.383-2.184,0.005l-11.186-6.319 l-11.215-6.334c-0.699-0.395-1.096-1.117-1.105-1.867h-0.008l-0.121-12.879l-0.121-12.879c-0.008-0.877,0.502-1.637,1.248-1.986 l10.922-6.443l11.092-6.546"/>
            <path fill="#3dbeee"  d="M550.693,55.9l-11.188-6.319l-11.215-6.334c-0.697-0.394-1.094-1.118-1.102-1.868h-0.01l-0.121-12.878 l-0.121-12.877c-0.01-0.878,0.502-1.638,1.248-1.988l10.922-6.443l11.092-6.545c0.697-0.408,1.529-0.382,2.184-0.003l11.188,6.317 l11.215,6.335c0.699,0.393,1.094,1.116,1.102,1.866h0.012l0.119,12.877l0.121,12.879c0.01,0.876-0.504,1.638-1.248,1.988 l-10.922,6.443l-11.094,6.545C552.178,56.305,551.346,56.279,550.693,55.9"/>
            <path fill="#3dbeee"  d="M524.156,101.873l-11.188-6.319l-11.215-6.334c-0.697-0.394-1.094-1.118-1.102-1.868h-0.01l-0.121-12.878 L500.4,61.597c-0.01-0.878,0.502-1.638,1.25-1.988l10.92-6.443l11.092-6.545c0.699-0.409,1.529-0.382,2.184-0.004l11.188,6.319 l11.215,6.334c0.699,0.393,1.096,1.116,1.102,1.866h0.012l0.121,12.877l0.119,12.879c0.01,0.876-0.504,1.638-1.248,1.988 l-10.922,6.443l-11.092,6.545C525.641,102.276,524.809,102.252,524.156,101.873"/>
            <path fill="#3dbeee"  d="M473.459,46.35l11.188,6.318l11.215,6.333c0.697,0.394,1.096,1.118,1.102,1.868h0.01l0.121,12.877 l0.121,12.879c0.01,0.876-0.504,1.638-1.248,1.987l-10.922,6.443l-11.092,6.546c-0.699,0.408-1.531,0.383-2.184,0.005l-11.186-6.319 l-11.215-6.334c-0.699-0.395-1.096-1.117-1.105-1.867h-0.008l-0.121-12.879l-0.121-12.878c-0.01-0.877,0.502-1.638,1.248-1.987 l10.922-6.443l11.092-6.546"/>
            <path fill="#3dbeee"  d="M576.83,101.377l-11.188-6.319l-11.213-6.334c-0.699-0.394-1.098-1.118-1.105-1.868h-0.008l-0.121-12.878 l-0.121-12.877c-0.01-0.878,0.502-1.638,1.248-1.988l10.922-6.443l11.092-6.545c0.697-0.408,1.529-0.382,2.184-0.003l11.188,6.318 l11.215,6.334c0.697,0.393,1.096,1.116,1.102,1.866h0.01l0.121,12.877l0.121,12.879c0.01,0.878-0.504,1.639-1.248,1.988 l-10.922,6.443l-11.092,6.545C578.314,101.781,577.482,101.756,576.83,101.377"/>
            <path fill="#3dbeee"  d="M499.48,91.462l11.188,6.318l11.215,6.334c0.697,0.394,1.096,1.118,1.102,1.868h0.01l0.121,12.876 l0.123,12.879c0.008,0.876-0.506,1.638-1.25,1.988l-10.922,6.443l-11.092,6.545c-0.699,0.408-1.531,0.384-2.184,0.005l-11.186-6.318 l-11.215-6.334c-0.699-0.395-1.096-1.118-1.105-1.868h-0.008l-0.121-12.879l-0.121-12.877c-0.008-0.877,0.502-1.638,1.248-1.988 l10.922-6.443l11.092-6.545"/>
            <path fill="#3dbeee"  d="M552.238,91.482l11.186,6.318l11.215,6.334c0.699,0.394,1.096,1.118,1.104,1.868l0.01-0.001l0.121,12.877 l0.121,12.879c0.008,0.876-0.504,1.638-1.248,1.988l-10.922,6.443l-11.094,6.545c-0.697,0.408-1.529,0.384-2.182,0.005 l-11.188-6.318l-11.215-6.334c-0.699-0.395-1.096-1.118-1.104-1.868h-0.01l-0.121-12.879l-0.121-12.877 c-0.008-0.877,0.502-1.639,1.25-1.988l10.92-6.443l11.092-6.545"/>
            <path fill="#3dbeee"  d="M604.998,91.533l11.188,6.317l11.215,6.334c0.697,0.394,1.094,1.117,1.102,1.867h0.01l0.121,12.878 l0.121,12.878c0.01,0.877-0.504,1.639-1.25,1.988l-10.92,6.443l-11.094,6.545c-0.697,0.409-1.529,0.384-2.182,0.006l-11.188-6.32 l-11.215-6.334c-0.699-0.394-1.096-1.117-1.104-1.867h-0.01l-0.121-12.879l-0.121-12.878c-0.008-0.877,0.504-1.637,1.25-1.987 l10.922-6.443l11.092-6.545"/>
            <path fill="#3dbeee"  d="M339.484,146.974l-11.188-6.32l-11.215-6.333c-0.699-0.394-1.096-1.117-1.104-1.867h-0.01l-0.119-12.879 l-0.121-12.878c-0.01-0.877,0.502-1.638,1.248-1.987l10.922-6.443l11.092-6.545c0.697-0.409,1.529-0.382,2.184-0.004l11.188,6.319 l11.215,6.334c0.697,0.393,1.094,1.116,1.1,1.865h0.012l0.121,12.878l0.121,12.879c0.01,0.877-0.504,1.638-1.248,1.988 l-10.922,6.443l-11.094,6.545C340.969,147.377,340.137,147.353,339.484,146.974"/>
            <path fill="#3dbeee"  d="M288.786,91.45l11.187,6.318l11.215,6.333c0.699,0.394,1.096,1.117,1.104,1.867h0.01l0.121,12.877 l0.121,12.879c0.008,0.877-0.504,1.639-1.248,1.988l-10.923,6.443l-11.093,6.546c-0.698,0.408-1.53,0.383-2.182,0.005l-11.187-6.32 l-11.215-6.334c-0.699-0.394-1.095-1.117-1.104-1.867h-0.009l-0.121-12.878l-0.121-12.879c-0.008-0.877,0.503-1.637,1.249-1.986 l10.921-6.443l11.092-6.546"/>
            <path fill="#3dbeee"  d="M392.158,146.478l-11.188-6.319l-11.215-6.334c-0.699-0.394-1.096-1.117-1.104-1.867h-0.01l-0.119-12.879 l-0.123-12.877c-0.008-0.878,0.504-1.639,1.25-1.988l10.922-6.443l11.09-6.545c0.699-0.409,1.531-0.382,2.184-0.004l11.188,6.319 l11.215,6.334c0.699,0.393,1.096,1.116,1.102,1.866l0.012-0.001l0.121,12.878l0.121,12.879c0.008,0.877-0.504,1.638-1.25,1.988 l-10.92,6.443l-11.094,6.545C393.641,146.881,392.811,146.856,392.158,146.478"/>
            <path fill="#3dbeee"  d="M314.809,136.562l11.188,6.318l11.213,6.334c0.699,0.394,1.096,1.117,1.102,1.866h0.012l0.121,12.878 l0.121,12.879c0.01,0.876-0.504,1.638-1.25,1.988l-10.92,6.443l-11.094,6.545c-0.697,0.408-1.529,0.384-2.182,0.005l-11.188-6.32 l-11.215-6.333c-0.698-0.394-1.095-1.117-1.103-1.867h-0.009l-0.121-12.879l-0.121-12.879c-0.009-0.876,0.502-1.637,1.249-1.986 l10.921-6.443l11.091-6.545"/>
            <path fill="#3dbeee"  d="M446.719,91.072l11.188,6.318l11.215,6.334c0.697,0.394,1.096,1.117,1.102,1.866h0.01l0.121,12.878 l0.121,12.879c0.01,0.876-0.504,1.638-1.248,1.988l-10.922,6.443l-11.092,6.545c-0.699,0.408-1.531,0.384-2.184,0.005l-11.186-6.318 l-11.215-6.335c-0.699-0.394-1.096-1.117-1.105-1.867h-0.008l-0.121-12.879l-0.121-12.879c-0.01-0.875,0.502-1.637,1.248-1.986 l10.922-6.443l11.092-6.545"/>
            <path fill="#3dbeee"  d="M602.811,56.532l-11.188-6.319l-11.215-6.334c-0.697-0.394-1.096-1.117-1.104-1.867h-0.008l-0.121-12.879 l-0.121-12.878c-0.01-0.877,0.502-1.638,1.248-1.987l10.922-6.443l11.092-6.545c0.697-0.409,1.529-0.382,2.184-0.004l11.188,6.319 l11.213,6.334c0.699,0.393,1.098,1.116,1.104,1.866l0.01-0.001l0.121,12.878l0.121,12.879c0.01,0.877-0.504,1.638-1.248,1.988 l-10.922,6.443l-11.092,6.545C604.295,56.936,603.463,56.911,602.811,56.532"/>
            <path fill="#3dbeee"  d="M102.769,101.537l-11.187-6.32l-11.215-6.334c-0.698-0.394-1.095-1.116-1.103-1.866h-0.009l-0.121-12.88 L79.013,61.26c-0.009-0.878,0.502-1.638,1.249-1.988l10.921-6.443l11.091-6.545c0.698-0.408,1.53-0.382,2.185-0.003l11.186,6.319 l11.215,6.333c0.699,0.393,1.096,1.116,1.102,1.866h0.011l0.121,12.877l0.121,12.879c0.009,0.878-0.504,1.639-1.249,1.988 l-10.921,6.443l-11.093,6.546C104.253,101.94,103.421,101.915,102.769,101.537"/>
            <path fill="#3dbeee"  d="M52.071,46.013l11.187,6.318l11.215,6.334c0.698,0.394,1.095,1.117,1.101,1.867l0.011-0.001l0.121,12.877 l0.121,12.88c0.009,0.876-0.504,1.638-1.249,1.988L63.657,94.72l-11.093,6.545c-0.698,0.408-1.53,0.384-2.183,0.005l-11.187-6.318 L27.98,88.616c-0.699-0.394-1.096-1.117-1.104-1.867h-0.009L26.746,73.87l-0.121-12.879c-0.009-0.876,0.502-1.637,1.249-1.986 l10.921-6.443l11.092-6.545"/>
            <path fill="#3dbeee"  d="M78.465,0.452l11.187,6.318l11.215,6.333c0.698,0.394,1.095,1.119,1.101,1.867h0.011l0.121,12.878 l0.121,12.879c0.009,0.876-0.504,1.638-1.249,1.988l-10.921,6.443l-11.093,6.545c-0.698,0.408-1.53,0.383-2.183,0.005l-11.187-6.32 l-11.215-6.332c-0.698-0.395-1.095-1.118-1.103-1.868h-0.009L53.14,28.31L53.02,15.432c-0.009-0.878,0.502-1.638,1.249-1.987 l10.921-6.443l11.092-6.546"/>
            <path fill="#3dbeee"  d="M131.222,0.473l11.187,6.318l11.214,6.333c0.699,0.394,1.096,1.118,1.102,1.867h0.011l0.121,12.878 l0.121,12.879c0.009,0.876-0.504,1.638-1.249,1.987l-10.921,6.443l-11.093,6.546c-0.698,0.408-1.53,0.383-2.183,0.005l-11.187-6.319 l-11.215-6.334c-0.698-0.395-1.095-1.117-1.103-1.867h-0.009l-0.121-12.879l-0.121-12.879c-0.009-0.877,0.502-1.637,1.249-1.986 l10.921-6.443l11.091-6.546"/>
            <path fill="#3dbeee"  d="M155.442,101.041l-11.187-6.32l-11.215-6.334c-0.698-0.394-1.095-1.116-1.103-1.866h-0.009l-0.121-12.88 l-0.121-12.877c-0.009-0.878,0.502-1.638,1.249-1.987l10.921-6.443l11.092-6.546c0.697-0.408,1.529-0.382,2.184-0.003l11.187,6.319 l11.215,6.333c0.698,0.393,1.095,1.116,1.101,1.866h0.011l0.121,12.877l0.121,12.879c0.009,0.878-0.504,1.639-1.249,1.988 l-10.921,6.443l-11.093,6.546C156.927,101.444,156.095,101.419,155.442,101.041"/>
            <path fill="#3dbeee"  d="M234.68,56.047l-11.187-6.32l-11.215-6.334c-0.698-0.394-1.095-1.117-1.104-1.867h-0.008l-0.121-12.879 l-0.122-12.877c-0.008-0.878,0.503-1.638,1.249-1.988l10.922-6.443l11.091-6.545c0.698-0.408,1.53-0.382,2.184-0.003l11.187,6.318 l11.215,6.333c0.699,0.394,1.095,1.117,1.102,1.867h0.011l0.121,12.877l0.121,12.879c0.008,0.877-0.504,1.639-1.249,1.988 l-10.921,6.443l-11.094,6.546C236.164,56.45,235.333,56.425,234.68,56.047"/>
            <path fill="#3dbeee"  d="M183.982,0.522l11.187,6.318l11.215,6.334c0.698,0.394,1.095,1.118,1.102,1.868l0.01-0.002l0.121,12.878 l0.122,12.879c0.008,0.876-0.505,1.638-1.249,1.988l-10.922,6.443l-11.093,6.545c-0.698,0.408-1.53,0.384-2.182,0.005l-11.187-6.318 l-11.215-6.334c-0.699-0.395-1.095-1.118-1.104-1.868h-0.009l-0.121-12.879l-0.121-12.877c-0.008-0.878,0.503-1.639,1.249-1.988 l10.921-6.443l11.092-6.545"/>
            <path fill="#3dbeee"  d="M287.353,55.551l-11.187-6.32l-11.215-6.334c-0.698-0.394-1.095-1.117-1.103-1.867h-0.009l-0.121-12.878 l-0.122-12.878c-0.008-0.878,0.503-1.638,1.249-1.987l10.922-6.443l11.091-6.546c0.698-0.408,1.53-0.382,2.184-0.003l11.187,6.318 l11.215,6.333c0.699,0.394,1.096,1.117,1.104,1.867h0.01l0.121,12.877l0.121,12.879c0.008,0.877-0.504,1.639-1.248,1.988L300.629,49 l-11.094,6.546C288.837,55.954,288.006,55.929,287.353,55.551"/>
            <path fill="#3dbeee"  d="M260.816,101.523l-11.187-6.32l-11.215-6.334c-0.698-0.394-1.095-1.116-1.103-1.866h-0.009l-0.121-12.88 l-0.121-12.877c-0.009-0.878,0.502-1.638,1.249-1.988l10.921-6.442l11.092-6.546c0.698-0.408,1.529-0.382,2.184-0.003l11.187,6.319 l11.215,6.333c0.698,0.393,1.095,1.116,1.101,1.866h0.011l0.121,12.877l0.121,12.879c0.009,0.878-0.504,1.639-1.249,1.988 l-10.921,6.443l-11.093,6.546C262.301,101.927,261.469,101.901,260.816,101.523"/>
            <path fill="#3dbeee"  d="M210.119,45.999l11.187,6.318l11.215,6.334c0.698,0.394,1.095,1.118,1.102,1.868h0.01l0.121,12.876 l0.121,12.879c0.009,0.876-0.504,1.638-1.249,1.988l-10.921,6.443l-11.093,6.545c-0.698,0.408-1.53,0.384-2.182,0.005l-11.187-6.318 l-11.215-6.334c-0.699-0.395-1.095-1.118-1.104-1.868h-0.009l-0.121-12.879l-0.121-12.877c-0.009-0.877,0.502-1.638,1.249-1.988 l10.921-6.443l11.092-6.545"/>
            <path fill="#3dbeee"  d="M260.444,192.196l-11.187-6.319l-11.215-6.334c-0.698-0.394-1.095-1.118-1.104-1.868h-0.008l-0.121-12.878 l-0.122-12.877c-0.008-0.878,0.503-1.639,1.249-1.988l10.922-6.443l11.091-6.545c0.698-0.409,1.53-0.382,2.184-0.004l11.187,6.318 l11.215,6.334c0.699,0.394,1.095,1.117,1.102,1.867l0.011-0.001l0.121,12.878l0.121,12.879c0.008,0.876-0.504,1.638-1.249,1.988 l-10.921,6.443l-11.094,6.545C261.928,192.6,261.097,192.575,260.444,192.196"/>
            <path fill="#3dbeee"  d="M209.746,136.673l11.187,6.318l11.215,6.333c0.698,0.394,1.095,1.117,1.102,1.867h0.01l0.121,12.878 l0.122,12.879c0.008,0.876-0.505,1.638-1.249,1.987l-10.922,6.443l-11.093,6.546c-0.698,0.408-1.53,0.383-2.182,0.005l-11.187-6.32 l-11.215-6.334c-0.699-0.394-1.095-1.116-1.104-1.866h-0.009l-0.121-12.879l-0.121-12.878c-0.008-0.878,0.503-1.638,1.249-1.987 l10.921-6.443l11.092-6.546"/>
            <path fill="#3dbeee"  d="M236.14,91.112l11.187,6.318l11.215,6.333c0.698,0.394,1.095,1.117,1.102,1.867h0.01l0.121,12.877 l0.122,12.879c0.008,0.877-0.505,1.639-1.249,1.988l-10.922,6.443l-11.093,6.546c-0.698,0.408-1.53,0.383-2.182,0.005l-11.187-6.32 l-11.215-6.334c-0.699-0.394-1.095-1.117-1.104-1.867h-0.009l-0.121-12.879l-0.121-12.878c-0.008-0.877,0.503-1.637,1.249-1.987 l10.921-6.442l11.092-6.546"/>
            <path fill="#3dbeee"  d="M288.897,91.133l11.187,6.318l11.215,6.333c0.699,0.394,1.096,1.118,1.102,1.868h0.012l0.119,12.877 l0.121,12.878c0.01,0.877-0.504,1.639-1.248,1.988l-10.922,6.443l-11.093,6.546c-0.698,0.408-1.53,0.383-2.182,0.005l-11.187-6.319 l-11.215-6.334c-0.699-0.395-1.095-1.118-1.104-1.868h-0.009l-0.121-12.879l-0.121-12.877c-0.009-0.877,0.502-1.638,1.249-1.988 l10.921-6.443l11.092-6.545"/>
            <path fill="#3dbeee"  d="M76.143,146.624l-11.187-6.32l-11.214-6.334c-0.699-0.394-1.096-1.116-1.104-1.866h-0.009l-0.121-12.88 l-0.121-12.877c-0.009-0.878,0.502-1.638,1.249-1.988l10.921-6.443l11.092-6.545c0.698-0.408,1.529-0.382,2.184-0.003l11.187,6.318 l11.215,6.334c0.698,0.393,1.095,1.116,1.101,1.866h0.011l0.121,12.877l0.121,12.879c0.009,0.878-0.504,1.639-1.249,1.988 l-10.921,6.443l-11.093,6.545C77.628,147.027,76.796,147.002,76.143,146.624"/>
            <path fill="#3dbeee"  d="M25.446,91.1l11.187,6.318l11.215,6.334c0.698,0.394,1.095,1.118,1.102,1.867h0.01l0.121,12.877 l0.122,12.879c0.008,0.876-0.505,1.638-1.249,1.988l-10.922,6.443l-11.093,6.545c-0.698,0.408-1.53,0.384-2.182,0.005l-11.187-6.319 l-11.215-6.333c-0.699-0.395-1.095-1.118-1.104-1.868H0.242l-0.121-12.879L0,106.079c-0.008-0.876,0.503-1.638,1.249-1.987 l10.921-6.443l11.092-6.545"/>
            <path fill="#3dbeee"  d="M128.817,146.128l-11.187-6.32l-11.215-6.334c-0.698-0.394-1.095-1.116-1.103-1.866h-0.009l-0.121-12.88 l-0.122-12.877c-0.008-0.878,0.503-1.638,1.249-1.988l10.922-6.443l11.091-6.545c0.698-0.408,1.53-0.382,2.184-0.003l11.187,6.319 l11.215,6.333c0.699,0.393,1.095,1.116,1.102,1.866h0.011l0.121,12.877l0.121,12.879c0.008,0.878-0.504,1.639-1.249,1.988 l-10.921,6.443l-11.094,6.546C130.301,146.531,129.47,146.506,128.817,146.128"/>
            <path fill="#3dbeee"  d="M51.468,136.213l11.187,6.317l11.214,6.334c0.699,0.394,1.096,1.117,1.102,1.867h0.011l0.121,12.878 l0.121,12.878c0.009,0.877-0.504,1.639-1.249,1.988l-10.921,6.443l-11.093,6.545c-0.698,0.409-1.53,0.384-2.183,0.006l-11.187-6.32 l-11.215-6.334c-0.698-0.394-1.095-1.117-1.103-1.867h-0.009l-0.121-12.879l-0.121-12.878c-0.009-0.877,0.502-1.637,1.249-1.987 l10.921-6.443l11.091-6.545"/>
            <path fill="#3dbeee"  d="M104.224,136.233l11.187,6.317l11.215,6.334c0.698,0.394,1.095,1.117,1.102,1.867h0.01l0.121,12.877 l0.122,12.879c0.008,0.877-0.505,1.639-1.249,1.988l-10.922,6.443l-11.093,6.545c-0.698,0.409-1.53,0.384-2.182,0.005l-11.187-6.319 l-11.215-6.334c-0.699-0.394-1.095-1.117-1.104-1.867H79.02l-0.121-12.879l-0.121-12.878c-0.008-0.877,0.503-1.637,1.249-1.987 l10.921-6.443l11.092-6.545"/>
            <path fill="#3dbeee"  d="M156.984,136.283l11.187,6.318l11.215,6.333c0.698,0.394,1.095,1.117,1.102,1.867h0.01l0.121,12.878 l0.122,12.878c0.008,0.877-0.505,1.639-1.249,1.988l-10.922,6.443l-11.093,6.546c-0.698,0.408-1.53,0.383-2.182,0.005l-11.187-6.32 l-11.215-6.334c-0.699-0.394-1.095-1.117-1.104-1.867h-0.009l-0.121-12.879l-0.121-12.878c-0.008-0.877,0.502-1.637,1.249-1.986 l10.921-6.443l11.092-6.546"/>
            <path fill="#3dbeee"  d="M183.378,90.723l11.187,6.317l11.215,6.334c0.698,0.394,1.095,1.117,1.102,1.867h0.01l0.121,12.878 l0.121,12.878c0.009,0.877-0.504,1.639-1.248,1.988l-10.922,6.443l-11.093,6.545c-0.698,0.409-1.53,0.384-2.182,0.006l-11.187-6.319 l-11.215-6.334c-0.699-0.395-1.095-1.118-1.104-1.868h-0.009l-0.121-12.879l-0.121-12.878c-0.009-0.877,0.502-1.637,1.249-1.987 l10.921-6.443l11.092-6.545"/>
            <path fill="#3dbeee"  d="M24.258,56.002l-11.187-6.32L1.857,43.348c-0.699-0.394-1.096-1.117-1.104-1.867H0.744L0.623,28.602 L0.502,15.725c-0.009-0.878,0.502-1.638,1.249-1.988l10.921-6.443l11.092-6.545c0.698-0.408,1.529-0.382,2.184-0.003l11.187,6.317 l11.215,6.334c0.698,0.394,1.095,1.117,1.101,1.867h0.011l0.121,12.877l0.121,12.879c0.009,0.877-0.504,1.639-1.249,1.988 l-10.921,6.443l-11.093,6.545C25.743,56.405,24.911,56.38,24.258,56.002"/>
            <path fill="#3dbeee"  d="M919.279,56.608l-11.188-6.32l-11.215-6.334c-0.697-0.394-1.094-1.117-1.104-1.867h-0.008l-0.121-12.879 l-0.121-12.877c-0.01-0.878,0.502-1.638,1.248-1.988l10.922-6.443l11.092-6.545c0.697-0.408,1.529-0.382,2.184-0.003l11.188,6.317 l11.215,6.334c0.697,0.394,1.094,1.117,1.102,1.867h0.01l0.121,12.877l0.121,12.879c0.01,0.877-0.504,1.639-1.248,1.988 l-10.922,6.443l-11.094,6.545C920.764,57.012,919.932,56.986,919.279,56.608"/>
            <path fill="#3dbeee"  d="M868.582,1.084l11.188,6.318l11.215,6.334c0.697,0.394,1.094,1.117,1.102,1.866h0.01l0.121,12.878 l0.121,12.879c0.008,0.876-0.504,1.638-1.248,1.988l-10.922,6.443l-11.094,6.545c-0.697,0.408-1.529,0.384-2.182,0.005l-11.188-6.32 l-11.215-6.333c-0.699-0.394-1.096-1.117-1.104-1.867h-0.01l-0.121-12.879l-0.121-12.879c-0.008-0.876,0.504-1.637,1.25-1.986 l10.922-6.443l11.092-6.546"/>
            <path fill="#3dbeee"  d="M971.953,56.112l-11.189-6.32l-11.213-6.334c-0.697-0.394-1.096-1.117-1.104-1.867h-0.008l-0.123-12.879 l-0.121-12.877c-0.008-0.878,0.504-1.638,1.25-1.988l10.922-6.443l11.092-6.545c0.697-0.408,1.529-0.382,2.182-0.003l11.189,6.318 l11.215,6.333c0.697,0.394,1.094,1.117,1.102,1.867h0.01l0.121,12.877l0.121,12.879c0.008,0.877-0.504,1.639-1.248,1.988 l-10.922,6.443l-11.094,6.546C973.438,56.516,972.605,56.49,971.953,56.112"/>
            <path fill="#3dbeee"  d="M918.906,147.281l-11.188-6.32l-11.213-6.333c-0.699-0.394-1.096-1.118-1.105-1.868h-0.008l-0.121-12.878 l-0.121-12.878c-0.008-0.877,0.502-1.638,1.248-1.987l10.922-6.443l11.092-6.546c0.697-0.408,1.529-0.381,2.184-0.003l11.188,6.319 l11.215,6.334c0.699,0.393,1.096,1.116,1.102,1.865h0.01l0.123,12.878l0.121,12.879c0.008,0.876-0.504,1.638-1.25,1.988 l-10.922,6.443l-11.092,6.545C920.391,147.685,919.561,147.66,918.906,147.281"/>
            <path fill="#3dbeee"  d="M868.209,91.758l11.188,6.318l11.215,6.333c0.697,0.394,1.094,1.118,1.102,1.868h0.01l0.121,12.877 l0.123,12.878c0.008,0.877-0.506,1.639-1.25,1.988l-10.922,6.443l-11.094,6.546c-0.697,0.408-1.529,0.383-2.182,0.005l-11.188-6.319 l-11.215-6.334c-0.697-0.395-1.096-1.118-1.104-1.868h-0.008l-0.121-12.879l-0.121-12.877c-0.01-0.877,0.502-1.638,1.248-1.988 l10.922-6.442l11.092-6.546"/>
            <path fill="#3dbeee"  d="M894.604,46.197l11.188,6.317l11.215,6.334c0.697,0.394,1.094,1.117,1.102,1.867h0.01l0.121,12.878 l0.121,12.878c0.008,0.877-0.504,1.639-1.248,1.988l-10.922,6.443l-11.094,6.545c-0.697,0.409-1.529,0.384-2.182,0.006 l-11.188-6.319l-11.215-6.334c-0.697-0.395-1.096-1.118-1.104-1.868H869.4l-0.121-12.879l-0.123-12.878 c-0.008-0.877,0.504-1.637,1.25-1.987l10.922-6.443L892.42,46.2"/>
            <path fill="#3dbeee"  d="M947.359,46.218l11.188,6.317l11.215,6.334c0.699,0.394,1.096,1.117,1.102,1.867h0.012l0.121,12.878 l0.121,12.878c0.008,0.877-0.504,1.639-1.25,1.988l-10.922,6.443l-11.092,6.545c-0.699,0.409-1.529,0.384-2.184,0.006l-11.186-6.32 L923.27,88.82c-0.699-0.394-1.098-1.117-1.105-1.867h-0.008l-0.121-12.879l-0.121-12.877c-0.008-0.878,0.502-1.638,1.248-1.988 l10.922-6.443l11.092-6.545"/>
            <path fill="#3dbeee"  d="M971.58,146.785l-11.188-6.319l-11.215-6.334c-0.697-0.394-1.094-1.118-1.104-1.868h-0.008l-0.121-12.878 l-0.121-12.877c-0.01-0.878,0.502-1.639,1.248-1.988l10.922-6.443l11.092-6.545c0.697-0.409,1.529-0.382,2.184-0.004l11.188,6.319 l11.215,6.334c0.697,0.393,1.094,1.116,1.102,1.866l0.01-0.001l0.121,12.878l0.121,12.879c0.01,0.876-0.504,1.638-1.248,1.988 l-10.922,6.443l-11.094,6.545C973.064,147.188,972.232,147.164,971.58,146.785"/>
            <path fill="#3dbeee"  d="M1050.818,101.791l-11.189-6.319l-11.213-6.334c-0.699-0.394-1.096-1.117-1.104-1.867h-0.01l-0.121-12.879 l-0.121-12.878c-0.008-0.877,0.504-1.638,1.25-1.987l10.922-6.443l11.09-6.545c0.699-0.409,1.531-0.382,2.184-0.004l11.189,6.319 l11.213,6.334c0.699,0.393,1.096,1.116,1.104,1.865h0.01l0.121,12.878l0.121,12.88c0.008,0.876-0.506,1.637-1.248,1.987 l-10.924,6.443L1053,101.786C1052.301,102.194,1051.471,102.17,1050.818,101.791"/>
            <path fill="#3dbeee"  d="M1000.121,46.268l11.186,6.318l11.215,6.333c0.699,0.394,1.096,1.117,1.102,1.867h0.012l0.121,12.878 l0.121,12.878c0.008,0.877-0.504,1.639-1.25,1.988l-10.92,6.443l-11.094,6.546c-0.697,0.408-1.529,0.383-2.184,0.005l-11.186-6.32 l-11.215-6.334c-0.699-0.394-1.096-1.116-1.104-1.867l-0.01,0.001l-0.121-12.879l-0.121-12.879c-0.008-0.877,0.502-1.637,1.25-1.986 l10.92-6.443l11.092-6.546"/>
            <path fill="#3dbeee"  d="M1026.514,0.707l11.188,6.318l11.215,6.333c0.699,0.394,1.096,1.118,1.102,1.868h0.01l0.123,12.877 l0.121,12.878c0.008,0.877-0.506,1.639-1.25,1.988l-10.922,6.443l-11.092,6.546c-0.699,0.408-1.529,0.383-2.184,0.005l-11.188-6.319 l-11.215-6.334c-0.697-0.395-1.096-1.118-1.104-1.868h-0.008l-0.121-12.879l-0.121-12.877c-0.008-0.878,0.502-1.638,1.248-1.988 l10.922-6.443l11.092-6.545"/>
            <path fill="#3dbeee"  d="M1079.271,0.728l11.188,6.317l11.215,6.334c0.697,0.394,1.094,1.117,1.102,1.867h0.01l0.121,12.878 l0.121,12.878c0.008,0.877-0.504,1.639-1.248,1.988l-10.922,6.443l-11.094,6.545c-0.697,0.409-1.529,0.384-2.182,0.006 l-11.188-6.319l-11.215-6.334c-0.699-0.395-1.096-1.118-1.104-1.868h-0.008l-0.123-12.879l-0.121-12.877 c-0.008-0.877,0.504-1.638,1.25-1.988l10.922-6.443l11.09-6.545"/>
            <path fill="#3dbeee"  d="M1103.49,101.295l-11.188-6.319l-11.213-6.334c-0.699-0.394-1.096-1.117-1.104-1.867h-0.01l-0.121-12.879 l-0.121-12.877c-0.008-0.878,0.502-1.638,1.25-1.988l10.92-6.443l11.092-6.545c0.699-0.409,1.529-0.382,2.184-0.004l11.188,6.319 l11.215,6.334c0.699,0.393,1.096,1.116,1.102,1.866h0.012l0.121,12.877l0.121,12.88c0.008,0.876-0.506,1.637-1.25,1.987 l-10.922,6.443l-11.092,6.545C1104.977,101.699,1104.145,101.674,1103.49,101.295"/>
            <path fill="#3dbeee"  d="M1076.955,147.268l-11.189-6.319l-11.213-6.334c-0.699-0.394-1.096-1.118-1.104-1.868h-0.01l-0.121-12.878 l-0.121-12.877c-0.01-0.878,0.502-1.639,1.25-1.988l10.92-6.443l11.092-6.545c0.699-0.409,1.529-0.382,2.184-0.004l11.188,6.318 l11.215,6.335c0.699,0.393,1.096,1.116,1.104,1.866l0.01-0.001l0.121,12.878l0.121,12.879c0.008,0.876-0.506,1.638-1.248,1.988 l-10.924,6.443l-11.092,6.545C1078.438,147.671,1077.607,147.646,1076.955,147.268"/>
            <path fill="#3dbeee"  d="M1026.258,91.744l11.186,6.318l11.215,6.333c0.699,0.394,1.096,1.118,1.102,1.868h0.012l0.121,12.877 l0.121,12.879c0.008,0.876-0.504,1.638-1.25,1.987l-10.92,6.443l-11.094,6.546c-0.699,0.408-1.529,0.383-2.184,0.005l-11.186-6.319 l-11.215-6.334c-0.699-0.395-1.096-1.117-1.104-1.867h-0.01l-0.121-12.879l-0.121-12.878c-0.008-0.878,0.502-1.638,1.25-1.987 l10.92-6.443l11.092-6.546"/>
            <path fill="#3dbeee"  d="M1129.627,146.771l-11.188-6.319l-11.213-6.334c-0.699-0.394-1.096-1.118-1.104-1.868h-0.01l-0.121-12.878 l-0.121-12.877c-0.008-0.878,0.502-1.638,1.248-1.988l10.922-6.443l11.092-6.545c0.697-0.408,1.529-0.382,2.184-0.003l11.188,6.317 l11.215,6.335c0.699,0.393,1.096,1.116,1.102,1.866h0.012l0.121,12.877l0.121,12.879c0.008,0.878-0.506,1.639-1.25,1.988 l-10.922,6.443l-11.092,6.545C1131.111,147.176,1130.281,147.15,1129.627,146.771"/>
            <path fill="#3dbeee"  d="M1155.607,101.927l-11.188-6.319l-11.213-6.334c-0.699-0.394-1.096-1.117-1.105-1.867h-0.008l-0.121-12.879 l-0.121-12.878c-0.008-0.877,0.502-1.638,1.248-1.987l10.922-6.443l11.092-6.545c0.697-0.409,1.529-0.382,2.184-0.004l11.188,6.318 l11.215,6.335c0.699,0.393,1.096,1.116,1.102,1.865h0.012l0.121,12.878l0.121,12.879c0.008,0.877-0.506,1.638-1.25,1.988 l-10.922,6.443l-11.092,6.545C1157.092,102.33,1156.262,102.306,1155.607,101.927"/>
            <path fill="#3dbeee"  d="M1131.305,0.843l11.188,6.318l11.215,6.333c0.697,0.394,1.094,1.117,1.102,1.867h0.01l0.121,12.878 l0.121,12.878c0.01,0.877-0.504,1.639-1.248,1.988l-10.922,6.443l-11.094,6.546c-0.697,0.408-1.529,0.383-2.182,0.005l-11.188-6.32 l-11.215-6.334c-0.697-0.394-1.096-1.117-1.104-1.867h-0.008l-0.121-12.879l-0.121-12.877c-0.01-0.878,0.502-1.638,1.248-1.988 l10.922-6.443l11.09-6.545"/>
            <path fill="#3dbeee"  d="M655.939,56.258l-11.188-6.32l-11.215-6.334c-0.699-0.394-1.096-1.116-1.104-1.866h-0.01l-0.119-12.878 l-0.123-12.879c-0.008-0.878,0.504-1.638,1.25-1.987l10.922-6.443l11.09-6.546c0.699-0.408,1.531-0.381,2.184-0.003l11.188,6.319 l11.215,6.333c0.699,0.393,1.096,1.116,1.102,1.866h0.012l0.121,12.878l0.121,12.878c0.008,0.878-0.504,1.639-1.248,1.988 l-10.922,6.443l-11.094,6.546C657.422,56.661,656.592,56.636,655.939,56.258"/>
            <path fill="#3dbeee"  d="M708.611,55.762l-11.186-6.32l-11.215-6.334c-0.699-0.394-1.096-1.116-1.104-1.866h-0.01l-0.121-12.879 l-0.121-12.878c-0.008-0.878,0.502-1.638,1.248-1.987l10.922-6.443l11.092-6.546c0.697-0.408,1.529-0.381,2.184-0.003l11.188,6.319 l11.215,6.333c0.699,0.393,1.096,1.116,1.102,1.866h0.012l0.121,12.878l0.121,12.88c0.008,0.876-0.504,1.637-1.25,1.986 l-10.92,6.443l-11.094,6.546C710.096,56.165,709.266,56.14,708.611,55.762"/>
            <path fill="#3dbeee"  d="M655.566,146.931l-11.188-6.319l-11.215-6.334c-0.697-0.394-1.096-1.117-1.104-1.867h-0.008l-0.121-12.879 l-0.121-12.877c-0.01-0.878,0.502-1.638,1.248-1.988l10.922-6.443l11.09-6.545c0.699-0.408,1.531-0.382,2.186-0.003l11.186,6.317 l11.215,6.335c0.699,0.393,1.096,1.116,1.104,1.866h0.01l0.121,12.877l0.121,12.879c0.01,0.877-0.504,1.639-1.248,1.988 l-10.922,6.443l-11.094,6.545C657.051,147.335,656.219,147.31,655.566,146.931"/>
            <path fill="#3dbeee"  d="M631.264,45.847l11.186,6.318l11.215,6.333c0.699,0.394,1.096,1.117,1.102,1.867h0.012l0.121,12.877 l0.121,12.879c0.008,0.877-0.504,1.639-1.25,1.988l-10.92,6.443l-11.094,6.546c-0.697,0.408-1.529,0.383-2.184,0.005l-11.186-6.32 l-11.215-6.334c-0.699-0.394-1.096-1.116-1.104-1.867l-0.01,0.001l-0.121-12.879l-0.121-12.879c-0.008-0.877,0.502-1.637,1.25-1.986 l10.92-6.443l11.092-6.546"/>
            <path fill="#3dbeee"  d="M684.02,45.867l11.188,6.318l11.213,6.333c0.699,0.394,1.098,1.117,1.104,1.867h0.01l0.121,12.878 l0.121,12.878c0.01,0.877-0.504,1.639-1.248,1.988l-10.922,6.443l-11.094,6.546c-0.697,0.408-1.529,0.383-2.182,0.005l-11.188-6.32 l-11.215-6.334c-0.697-0.394-1.096-1.116-1.104-1.867h-0.008l-0.121-12.878l-0.121-12.879c-0.01-0.877,0.502-1.637,1.248-1.986 l10.922-6.443l11.09-6.546"/>
            <path fill="#3dbeee"  d="M708.24,146.436l-11.188-6.32l-11.215-6.334c-0.699-0.394-1.096-1.117-1.104-1.867h-0.01l-0.121-12.879 l-0.119-12.877c-0.01-0.878,0.502-1.638,1.248-1.988l10.922-6.443l11.09-6.545c0.699-0.408,1.531-0.382,2.186-0.003l11.188,6.317 l11.213,6.334c0.699,0.394,1.096,1.117,1.102,1.867h0.012l0.121,12.877l0.121,12.879c0.01,0.877-0.504,1.639-1.25,1.988 l-10.92,6.443l-11.094,6.545C709.725,146.839,708.893,146.813,708.24,146.436"/>
            <path fill="#3dbeee"  d="M787.477,101.44l-11.188-6.319l-11.213-6.334c-0.699-0.394-1.096-1.117-1.104-1.867h-0.01l-0.121-12.879 l-0.121-12.877c-0.01-0.878,0.502-1.638,1.25-1.988l10.92-6.443l11.092-6.545c0.699-0.408,1.529-0.382,2.184-0.003l11.188,6.318 l11.215,6.334c0.699,0.393,1.096,1.116,1.102,1.866h0.012l0.119,12.877l0.121,12.879c0.01,0.878-0.504,1.639-1.248,1.988 l-10.922,6.443l-11.092,6.545C788.961,101.845,788.129,101.819,787.477,101.44"/>
            <path fill="#3dbeee"  d="M736.779,45.917l11.188,6.318l11.215,6.334c0.697,0.394,1.096,1.117,1.102,1.866h0.01l0.121,12.877 l0.123,12.88c0.008,0.876-0.506,1.638-1.25,1.988l-10.922,6.443l-11.092,6.545c-0.699,0.408-1.531,0.383-2.184,0.005l-11.186-6.32 l-11.215-6.333c-0.699-0.394-1.096-1.117-1.105-1.867h-0.008l-0.121-12.879l-0.121-12.879c-0.008-0.877,0.502-1.637,1.248-1.986 l10.922-6.443l11.092-6.546"/>
            <path fill="#3dbeee"  d="M763.174,0.356l11.188,6.318l11.215,6.333c0.697,0.394,1.094,1.117,1.102,1.867h0.01l0.121,12.878 l0.121,12.879c0.01,0.876-0.504,1.638-1.248,1.987l-10.922,6.443l-11.094,6.546c-0.697,0.408-1.529,0.383-2.182,0.005l-11.188-6.32 l-11.215-6.334c-0.699-0.394-1.094-1.116-1.104-1.866h-0.01l-0.121-12.879l-0.119-12.878c-0.01-0.878,0.502-1.638,1.248-1.987 l10.922-6.443l11.092-6.546"/>
            <path fill="#3dbeee"  d="M815.93,0.377l11.188,6.318l11.215,6.333c0.699,0.394,1.096,1.117,1.102,1.867h0.012l0.121,12.878 l0.119,12.879c0.01,0.876-0.504,1.638-1.246,1.987l-10.924,6.443l-11.092,6.546c-0.699,0.408-1.531,0.383-2.182,0.005l-11.188-6.319 L791.84,42.98c-0.699-0.395-1.096-1.117-1.104-1.868l-0.01,0.001l-0.121-12.879l-0.121-12.879c-0.01-0.877,0.502-1.637,1.25-1.986 l10.92-6.443l11.092-6.546"/>
            <path fill="#3dbeee"  d="M840.15,100.945l-11.188-6.32l-11.215-6.334c-0.697-0.394-1.094-1.116-1.102-1.866h-0.01l-0.121-12.88 l-0.121-12.877c-0.01-0.878,0.502-1.638,1.248-1.988l10.922-6.443l11.092-6.545c0.697-0.408,1.529-0.382,2.184-0.003l11.188,6.319 l11.215,6.333c0.697,0.393,1.096,1.116,1.102,1.866h0.01l0.123,12.877l0.121,12.879c0.008,0.878-0.506,1.639-1.25,1.988 l-10.922,6.443l-11.094,6.546C841.635,101.349,840.803,101.323,840.15,100.945"/>
            <path fill="#3dbeee"  d="M813.613,146.918l-11.188-6.32l-11.215-6.334c-0.697-0.394-1.094-1.117-1.102-1.867h-0.01l-0.121-12.879 l-0.121-12.877c-0.01-0.878,0.502-1.638,1.25-1.988l10.92-6.443l11.092-6.545c0.697-0.408,1.529-0.382,2.184-0.003l11.188,6.319 l11.215,6.332c0.699,0.394,1.096,1.117,1.102,1.867h0.012l0.121,12.877l0.121,12.879c0.008,0.877-0.506,1.639-1.25,1.988 l-10.922,6.443l-11.092,6.545C815.098,147.321,814.266,147.296,813.613,146.918"/>
            <path fill="#3dbeee"  d="M762.916,91.394l11.188,6.318l11.215,6.334c0.697,0.394,1.096,1.118,1.102,1.866h0.01l0.121,12.878 l0.121,12.879c0.01,0.876-0.504,1.638-1.248,1.988l-10.922,6.443l-11.092,6.545c-0.699,0.408-1.531,0.384-2.184,0.005l-11.188-6.318 l-11.213-6.334c-0.699-0.395-1.098-1.118-1.105-1.868h-0.008l-0.121-12.879l-0.121-12.878c-0.01-0.877,0.502-1.638,1.248-1.987 l10.922-6.443l11.092-6.545"/>
            <path fill="#3dbeee"  d="M1394.273,56.844l-11.188-6.32l-11.215-6.334c-0.699-0.394-1.094-1.117-1.104-1.867h-0.008l-0.121-12.879 l-0.121-12.877c-0.01-0.878,0.502-1.638,1.248-1.988l10.922-6.443l11.092-6.545c0.697-0.408,1.529-0.382,2.184-0.003l11.188,6.317 l11.215,6.334c0.697,0.394,1.094,1.117,1.102,1.867h0.01l0.121,12.877l0.121,12.879c0.01,0.877-0.504,1.639-1.248,1.988 l-10.922,6.443l-11.094,6.545C1395.756,57.247,1394.926,57.222,1394.273,56.844"/>
            <path fill="#3dbeee"  d="M1343.576,1.319l11.188,6.318l11.215,6.334c0.697,0.394,1.094,1.118,1.102,1.866h0.01l0.121,12.878 l0.121,12.879c0.008,0.876-0.504,1.638-1.248,1.988l-10.922,6.443l-11.094,6.545c-0.697,0.408-1.529,0.383-2.182,0.005 l-11.188-6.319l-11.215-6.333c-0.697-0.395-1.096-1.118-1.104-1.868h-0.008l-0.123-12.879l-0.121-12.878 c-0.008-0.876,0.504-1.638,1.25-1.987l10.922-6.443l11.09-6.546"/>
            <path fill="#3dbeee"  d="M1446.947,56.348l-11.189-6.32l-11.213-6.334c-0.699-0.394-1.096-1.117-1.104-1.867h-0.008l-0.123-12.879 l-0.121-12.877c-0.008-0.878,0.504-1.638,1.25-1.988l10.922-6.443l11.092-6.545c0.697-0.408,1.529-0.382,2.182-0.003l11.189,6.319 l11.213,6.332c0.699,0.394,1.096,1.117,1.104,1.867h0.01l0.121,12.877l0.121,12.879c0.008,0.877-0.506,1.639-1.248,1.988 l-10.924,6.443l-11.092,6.546C1448.43,56.751,1447.6,56.726,1446.947,56.348"/>
            <path fill="#3dbeee"  d="M1393.9,147.517l-11.188-6.32l-11.215-6.333c-0.699-0.394-1.094-1.118-1.104-1.868h-0.008l-0.121-12.878 l-0.121-12.878c-0.008-0.877,0.502-1.638,1.248-1.987l10.922-6.443l11.092-6.546c0.697-0.408,1.529-0.381,2.184-0.003l11.188,6.318 l11.215,6.334c0.697,0.394,1.096,1.117,1.102,1.866h0.01l0.123,12.878l0.121,12.879c0.008,0.876-0.506,1.638-1.25,1.988 l-10.922,6.443l-11.092,6.545C1395.385,147.92,1394.553,147.896,1393.9,147.517"/>
            <path fill="#3dbeee"  d="M1343.203,91.993l11.188,6.318l11.213,6.333c0.699,0.394,1.096,1.117,1.104,1.867h0.01l0.121,12.878 l0.121,12.878c0.01,0.877-0.504,1.639-1.248,1.988l-10.922,6.443l-11.094,6.546c-0.697,0.408-1.529,0.383-2.182,0.005l-11.188-6.32 l-11.215-6.334c-0.697-0.394-1.096-1.117-1.104-1.867H1318l-0.121-12.879l-0.121-12.877c-0.01-0.878,0.502-1.638,1.248-1.988 l10.922-6.443l11.09-6.545"/>
            <path fill="#3dbeee"  d="M1369.598,46.433l11.188,6.317L1392,59.084c0.697,0.394,1.094,1.117,1.102,1.867h0.01l0.121,12.878 l0.121,12.878c0.008,0.877-0.504,1.639-1.248,1.988l-10.922,6.443l-11.094,6.545c-0.697,0.409-1.529,0.384-2.182,0.006 l-11.188-6.319l-11.215-6.334c-0.697-0.395-1.096-1.118-1.104-1.868h-0.008l-0.121-12.879l-0.123-12.877 c-0.008-0.877,0.504-1.638,1.25-1.988l10.922-6.443l11.09-6.545"/>
            <path fill="#3dbeee"  d="M1422.354,46.453l11.188,6.317l11.215,6.334c0.699,0.394,1.096,1.118,1.102,1.868h0.01l0.123,12.877 l0.121,12.878c0.008,0.877-0.506,1.639-1.25,1.988l-10.922,6.443l-11.092,6.545c-0.699,0.409-1.529,0.384-2.184,0.005l-11.188-6.318 l-11.215-6.334c-0.697-0.395-1.096-1.118-1.104-1.868h-0.008l-0.121-12.879l-0.121-12.877c-0.008-0.878,0.502-1.638,1.248-1.988 l10.922-6.443l11.092-6.545"/>
            <path fill="#3dbeee"  d="M1446.574,147.021l-11.188-6.319l-11.215-6.334c-0.699-0.394-1.094-1.118-1.104-1.868h-0.008l-0.121-12.878 l-0.121-12.877c-0.01-0.878,0.502-1.639,1.248-1.988l10.922-6.443l11.092-6.545c0.697-0.409,1.529-0.382,2.184-0.004l11.188,6.318 l11.215,6.334c0.697,0.394,1.094,1.117,1.102,1.867l0.01-0.001l0.121,12.878l0.121,12.879c0.01,0.876-0.504,1.638-1.248,1.988 l-10.922,6.443l-11.094,6.545C1448.059,147.424,1447.227,147.399,1446.574,147.021"/>
            <path fill="#3dbeee"  d="M1525.812,102.026l-11.189-6.319l-11.213-6.334c-0.699-0.394-1.096-1.117-1.104-1.867h-0.01l-0.121-12.879 l-0.121-12.878c-0.008-0.877,0.504-1.638,1.25-1.987l10.92-6.443l11.092-6.545c0.699-0.409,1.529-0.382,2.184-0.004l11.188,6.318 l11.215,6.335c0.699,0.393,1.096,1.116,1.104,1.865h0.01l0.121,12.878l0.121,12.879c0.008,0.877-0.506,1.638-1.248,1.988 l-10.924,6.443l-11.092,6.545C1527.295,102.43,1526.465,102.405,1525.812,102.026"/>
            <path fill="#3dbeee"  d="M1475.115,46.503l11.186,6.318l11.215,6.333c0.699,0.394,1.096,1.117,1.102,1.867h0.012l0.121,12.878 l0.121,12.878c0.008,0.877-0.504,1.639-1.25,1.988l-10.92,6.443l-11.094,6.546c-0.697,0.408-1.529,0.383-2.184,0.005l-11.186-6.319 l-11.215-6.334c-0.699-0.395-1.096-1.117-1.104-1.868h-0.01l-0.121-12.878l-0.121-12.878c-0.008-0.877,0.502-1.638,1.25-1.987 l10.92-6.443l11.092-6.546"/>
            <path fill="#3dbeee"  d="M1501.508,0.942l11.188,6.318l11.213,6.333c0.699,0.394,1.098,1.117,1.104,1.867h0.01l0.123,12.877 l0.121,12.879c0.008,0.877-0.506,1.639-1.25,1.988l-10.922,6.443l-11.092,6.545c-0.699,0.409-1.531,0.384-2.184,0.006l-11.188-6.32 l-11.215-6.334c-0.697-0.394-1.096-1.117-1.104-1.867h-0.008l-0.121-12.879l-0.121-12.878c-0.008-0.877,0.502-1.637,1.248-1.987 l10.922-6.443l11.092-6.545"/>
            <path fill="#3dbeee"  d="M1554.266,0.963l11.186,6.317l11.215,6.334c0.699,0.394,1.096,1.117,1.104,1.867h0.01l0.121,12.878 l0.121,12.878c0.008,0.877-0.504,1.639-1.248,1.988l-10.922,6.443l-11.094,6.545c-0.697,0.409-1.529,0.384-2.182,0.006l-11.188-6.32 l-11.215-6.334c-0.699-0.394-1.096-1.117-1.104-1.867h-0.01l-0.121-12.879l-0.121-12.878c-0.008-0.877,0.504-1.637,1.25-1.987 l10.922-6.443l11.09-6.545"/>
            <path fill="#3dbeee"  d="M1578.484,101.53l-11.188-6.319l-11.213-6.334c-0.699-0.394-1.096-1.117-1.104-1.867h-0.01l-0.121-12.879 l-0.121-12.877c-0.008-0.878,0.502-1.638,1.25-1.988l10.92-6.443l11.092-6.545c0.697-0.409,1.529-0.382,2.184-0.004l11.188,6.318 l11.215,6.335c0.699,0.393,1.096,1.116,1.102,1.866h0.012l0.121,12.877l0.121,12.879c0.008,0.877-0.506,1.638-1.25,1.988 l-10.922,6.443l-11.092,6.545C1579.969,101.934,1579.139,101.909,1578.484,101.53"/>
            <path fill="#3dbeee"  d="M1551.947,147.503l-11.188-6.319l-11.213-6.334c-0.699-0.394-1.096-1.117-1.104-1.867h-0.01l-0.121-12.879 l-0.121-12.877c-0.008-0.878,0.502-1.639,1.25-1.988l10.92-6.443l11.092-6.545c0.699-0.409,1.529-0.382,2.184-0.004l11.188,6.319 l11.215,6.334c0.699,0.393,1.096,1.116,1.102,1.866l0.012-0.001l0.121,12.878l0.121,12.879c0.008,0.877-0.506,1.638-1.25,1.988 l-10.922,6.443l-11.092,6.545C1553.434,147.906,1552.602,147.882,1551.947,147.503"/>
            <path fill="#3dbeee"  d="M1501.25,91.979l11.188,6.318l11.215,6.333c0.699,0.394,1.096,1.117,1.102,1.867h0.012l0.121,12.877 l0.121,12.88c0.008,0.876-0.504,1.638-1.25,1.987l-10.92,6.443l-11.094,6.546c-0.699,0.408-1.529,0.383-2.184,0.005l-11.186-6.32 l-11.215-6.334c-0.699-0.394-1.096-1.116-1.104-1.866h-0.01l-0.121-12.879l-0.121-12.879c-0.008-0.877,0.502-1.637,1.248-1.986 l10.922-6.443l11.092-6.546"/>
            <path fill="#3dbeee"  d="M1630.602,102.162l-11.188-6.319l-11.213-6.334c-0.699-0.394-1.096-1.117-1.105-1.867h-0.008l-0.121-12.878 l-0.121-12.879c-0.008-0.877,0.502-1.638,1.248-1.987l10.922-6.443l11.092-6.545c0.697-0.409,1.529-0.382,2.184-0.004l11.188,6.319 l11.215,6.334c0.699,0.393,1.096,1.116,1.102,1.865h0.01l0.123,12.878l0.121,12.88c0.008,0.876-0.506,1.637-1.25,1.987 l-10.922,6.443l-11.092,6.545C1632.086,102.565,1631.256,102.541,1630.602,102.162"/>
            <path fill="#3dbeee"  d="M1606.299,1.078l11.188,6.318l11.215,6.333c0.697,0.394,1.094,1.118,1.102,1.868h0.01l0.121,12.877 l0.121,12.878c0.008,0.877-0.504,1.639-1.248,1.988l-10.922,6.443l-11.094,6.546c-0.697,0.408-1.529,0.383-2.182,0.005 l-11.188-6.319l-11.215-6.334c-0.697-0.395-1.096-1.118-1.104-1.868h-0.008l-0.121-12.879l-0.123-12.877 c-0.008-0.878,0.504-1.638,1.25-1.988l10.922-6.443l11.09-6.545"/>
            <path fill="#3dbeee"  d="M1183.605,55.997l-11.188-6.32l-11.213-6.334c-0.699-0.394-1.096-1.116-1.104-1.866h-0.01l-0.121-12.879 l-0.121-12.878c-0.008-0.878,0.502-1.638,1.25-1.987l10.92-6.443l11.092-6.546c0.697-0.408,1.529-0.381,2.184-0.003l11.188,6.318 l11.215,6.334c0.699,0.393,1.096,1.116,1.102,1.866h0.012l0.121,12.878l0.121,12.879c0.008,0.877-0.506,1.638-1.25,1.987 l-10.922,6.443l-11.092,6.546C1185.092,56.4,1184.26,56.375,1183.605,55.997"/>
            <path fill="#3dbeee"  d="M1183.234,146.671l-11.189-6.32l-11.213-6.334c-0.699-0.394-1.096-1.117-1.104-1.867h-0.008l-0.123-12.879 l-0.121-12.877c-0.008-0.878,0.504-1.638,1.25-1.988l10.922-6.443l11.092-6.545c0.697-0.408,1.529-0.382,2.182-0.003l11.189,6.317 l11.215,6.334c0.697,0.394,1.094,1.117,1.102,1.867h0.01l0.121,12.877l0.121,12.879c0.008,0.877-0.504,1.639-1.248,1.988 l-10.924,6.443l-11.092,6.545C1184.717,147.074,1183.887,147.049,1183.234,146.671"/>
            <path fill="#3dbeee"  d="M1262.471,101.676l-11.188-6.319l-11.213-6.334c-0.699-0.394-1.096-1.118-1.104-1.868h-0.01l-0.121-12.878 l-0.121-12.877c-0.008-0.878,0.502-1.638,1.248-1.988l10.922-6.443l11.092-6.545c0.697-0.408,1.529-0.382,2.184-0.003l11.188,6.317 l11.215,6.335c0.699,0.393,1.096,1.116,1.102,1.866h0.012l0.121,12.877l0.121,12.879c0.008,0.878-0.506,1.639-1.25,1.988 l-10.922,6.443l-11.092,6.545C1263.955,102.08,1263.125,102.055,1262.471,101.676"/>
            <path fill="#3dbeee"  d="M1211.773,46.152l11.188,6.318l11.215,6.334c0.697,0.394,1.096,1.118,1.102,1.867h0.01l0.123,12.877 l0.121,12.879c0.008,0.876-0.506,1.638-1.25,1.988l-10.922,6.443l-11.092,6.545c-0.699,0.408-1.531,0.383-2.184,0.005l-11.188-6.319 l-11.215-6.333c-0.697-0.395-1.096-1.118-1.104-1.868h-0.008l-0.121-12.879l-0.121-12.878c-0.008-0.878,0.502-1.638,1.248-1.987 l10.922-6.443l11.092-6.546"/>
            <path fill="#3dbeee"  d="M1238.168,0.592l11.188,6.318l11.213,6.333c0.699,0.394,1.096,1.117,1.104,1.867h0.01l0.121,12.878 l0.121,12.879c0.01,0.876-0.504,1.638-1.248,1.987l-10.922,6.443l-11.094,6.546c-0.697,0.408-1.529,0.383-2.182,0.005l-11.188-6.32 l-11.215-6.334c-0.697-0.394-1.096-1.116-1.104-1.867l-0.008,0.001l-0.121-12.879l-0.121-12.879 c-0.01-0.877,0.502-1.637,1.248-1.986l10.922-6.443l11.09-6.546"/>
            <path fill="#3dbeee"  d="M1290.926,0.612l11.186,6.318l11.215,6.333c0.699,0.394,1.096,1.117,1.102,1.867h0.012l0.121,12.877 l0.121,12.879c0.008,0.877-0.504,1.639-1.25,1.988l-10.92,6.443l-11.094,6.546c-0.699,0.408-1.529,0.383-2.184,0.005l-11.186-6.32 l-11.215-6.334c-0.699-0.394-1.096-1.116-1.104-1.867l-0.01,0.001L1265.6,28.47l-0.121-12.879c-0.008-0.877,0.502-1.637,1.25-1.986 l10.92-6.443l11.092-6.546"/>
            <path fill="#3dbeee"  d="M1315.145,101.181l-11.188-6.32l-11.215-6.334c-0.699-0.394-1.094-1.116-1.104-1.866h-0.008l-0.121-12.88 l-0.121-12.877c-0.008-0.878,0.502-1.638,1.248-1.988l10.922-6.443l11.092-6.545c0.697-0.408,1.529-0.382,2.184-0.003l11.188,6.318 l11.215,6.334c0.697,0.393,1.096,1.116,1.102,1.866h0.01l0.121,12.877l0.123,12.879c0.008,0.878-0.506,1.639-1.25,1.988 l-10.922,6.443l-11.094,6.546C1316.629,101.584,1315.797,101.559,1315.145,101.181"/>
            <path fill="#3dbeee"  d="M1288.607,147.153l-11.188-6.32l-11.213-6.334c-0.699-0.394-1.096-1.116-1.105-1.866h-0.008l-0.121-12.88 l-0.121-12.877c-0.008-0.878,0.502-1.638,1.248-1.988l10.922-6.443l11.092-6.545c0.697-0.408,1.529-0.382,2.184-0.003l11.188,6.318 l11.215,6.334c0.699,0.393,1.096,1.116,1.102,1.866h0.01l0.123,12.877l0.121,12.879c0.008,0.878-0.506,1.639-1.25,1.988 l-10.922,6.443l-11.092,6.545C1290.092,147.557,1289.262,147.531,1288.607,147.153"/>
            <path fill="#3dbeee"  d="M1237.91,91.629l11.188,6.318l11.213,6.334c0.699,0.394,1.096,1.117,1.104,1.866h0.01l0.121,12.877 l0.123,12.88c0.008,0.876-0.506,1.638-1.25,1.988l-10.922,6.443l-11.094,6.545c-0.697,0.408-1.529,0.384-2.182,0.005l-11.188-6.32 l-11.215-6.333c-0.697-0.394-1.096-1.117-1.104-1.867h-0.008l-0.121-12.879l-0.121-12.879c-0.008-0.876,0.502-1.637,1.248-1.986 l10.922-6.443l11.09-6.545"/>
            <path fill="#3dbeee"  d="M1657.59,57.371l-11.188-6.319l-11.213-6.334c-0.699-0.394-1.096-1.118-1.104-1.868h-0.01l-0.121-12.878 l-0.121-12.877c-0.008-0.878,0.502-1.638,1.25-1.988l10.92-6.443l11.092-6.545c0.699-0.408,1.529-0.382,2.184-0.003l11.188,6.317 l11.215,6.335c0.699,0.393,1.096,1.116,1.104,1.866h0.01l0.121,12.877l0.121,12.879c0.008,0.878-0.506,1.639-1.25,1.988 l-10.922,6.443l-11.092,6.545C1659.076,57.775,1658.244,57.75,1657.59,57.371"/>
            <path fill="#3dbeee"  d="M76.979,236.793l-11.187-6.32l-11.215-6.334c-0.698-0.394-1.095-1.117-1.103-1.867h-0.009l-0.121-12.878 l-0.122-12.878c-0.008-0.878,0.503-1.638,1.249-1.987l10.922-6.443l11.091-6.546c0.698-0.408,1.53-0.381,2.184-0.003l11.187,6.318 l11.215,6.333c0.699,0.394,1.095,1.117,1.102,1.867h0.011l0.121,12.878l0.121,12.879c0.008,0.876-0.504,1.638-1.249,1.987 l-10.921,6.443l-11.094,6.546C78.462,237.196,77.631,237.171,76.979,236.793"/>
            <path fill="#3dbeee"  d="M26.281,181.27l11.187,6.317l11.214,6.334c0.699,0.394,1.096,1.118,1.102,1.868h0.011l0.121,12.877 l0.121,12.878c0.009,0.877-0.504,1.639-1.249,1.988l-10.921,6.443l-11.094,6.545c-0.698,0.409-1.529,0.384-2.182,0.005 l-11.187-6.318l-11.215-6.334c-0.698-0.395-1.095-1.118-1.103-1.868H1.077l-0.121-12.879l-0.121-12.877 c-0.009-0.878,0.502-1.638,1.249-1.988l10.921-6.443l11.091-6.545"/>
            <path fill="#3dbeee"  d="M129.652,236.297l-11.187-6.32l-11.215-6.334c-0.698-0.394-1.095-1.117-1.103-1.867h-0.009l-0.121-12.878 l-0.121-12.878c-0.009-0.878,0.502-1.638,1.248-1.987l10.922-6.443l11.091-6.546c0.698-0.408,1.53-0.381,2.184-0.003l11.187,6.318 l11.215,6.333c0.699,0.394,1.095,1.118,1.102,1.867h0.011l0.121,12.878l0.121,12.879c0.008,0.876-0.504,1.638-1.249,1.987 l-10.921,6.443l-11.094,6.546C131.136,236.7,130.305,236.675,129.652,236.297"/>
            <path fill="#3dbeee"  d="M52.83,226.203l11.187,6.318l11.215,6.333c0.698,0.394,1.095,1.119,1.101,1.868h0.011l0.121,12.877 l0.121,12.879c0.009,0.876-0.504,1.638-1.249,1.988l-10.921,6.442l-11.093,6.546c-0.698,0.408-1.53,0.383-2.183,0.005l-11.187-6.319 l-11.215-6.334c-0.698-0.395-1.095-1.117-1.103-1.867h-0.009l-0.121-12.879l-0.121-12.878c-0.009-0.878,0.502-1.638,1.249-1.987 l10.921-6.443l11.092-6.546"/>
            <path fill="#3dbeee"  d="M104.863,226.318l11.187,6.318l11.214,6.334c0.699,0.394,1.096,1.117,1.102,1.866h0.011l0.121,12.878 l0.121,12.879c0.009,0.876-0.504,1.638-1.249,1.988l-10.921,6.443l-11.094,6.545c-0.698,0.408-1.529,0.383-2.182,0.005 l-11.187-6.319l-11.215-6.334c-0.698-0.394-1.095-1.117-1.103-1.867h-0.009l-0.121-12.879l-0.121-12.879 c-0.009-0.877,0.502-1.637,1.249-1.986l10.921-6.443l11.091-6.546"/>
            <path fill="#3dbeee"  d="M184.318,182.789l11.187,6.317l11.215,6.334c0.698,0.394,1.095,1.117,1.102,1.867h0.01l0.121,12.878 l0.122,12.878c0.008,0.877-0.505,1.639-1.249,1.988l-10.922,6.443l-11.093,6.545c-0.698,0.409-1.53,0.384-2.182,0.005l-11.187-6.318 l-11.215-6.335c-0.699-0.394-1.095-1.117-1.104-1.867h-0.009l-0.121-12.879l-0.121-12.878c-0.008-0.877,0.503-1.637,1.249-1.987 l10.921-6.443l11.092-6.545"/>
            <path fill="#3dbeee"  d="M26.729,271.916l11.187,6.318l11.215,6.333c0.698,0.394,1.095,1.118,1.101,1.868h0.011l0.121,12.877 l0.121,12.878c0.009,0.877-0.504,1.639-1.249,1.988l-10.921,6.443l-11.093,6.546c-0.698,0.408-1.53,0.383-2.183,0.005l-11.187-6.319 L2.638,314.52c-0.698-0.395-1.095-1.118-1.103-1.868H1.525l-0.121-12.879l-0.121-12.877c-0.009-0.878,0.502-1.638,1.249-1.988 l10.921-6.442l11.092-6.546"/>
            <path fill="#3dbeee"  d="M78.763,272.031l11.187,6.318l11.215,6.333c0.698,0.394,1.095,1.117,1.102,1.867h0.01l0.121,12.878 l0.122,12.878c0.008,0.877-0.505,1.639-1.249,1.988l-10.922,6.443l-11.093,6.546c-0.698,0.408-1.53,0.383-2.182,0.005l-11.187-6.319 l-11.215-6.335c-0.699-0.394-1.095-1.116-1.104-1.867h-0.009l-0.121-12.878l-0.121-12.878c-0.008-0.878,0.503-1.638,1.249-1.987 l10.921-6.443l11.092-6.546"/>
            <polyline fill="none" points="1703.266,-1672.287 1703.266,421.381 23.266,421.381 23.266,-1672.287 "/>
        </svg>