<?xml version="1.0" standalone="no"?>
<!DOCTYPE svg PUBLIC "-//W3C//DTD SVG 20010904//EN"
 "http://www.w3.org/TR/2001/REC-SVG-20010904/DTD/svg10.dtd">
<svg version="1.0" xmlns="http://www.w3.org/2000/svg"
 width="880.000000pt" height="880.000000pt" viewBox="0 0 880.000000 880.000000"
 preserveAspectRatio="xMidYMid meet">
<metadata>
Created by potrace 1.11, written by Peter Selinger 2001-2013
</metadata>
<g transform="translate(0.000000,880.000000) scale(0.100000,-0.100000)"
fill="#000000" stroke="none">
<path d="M4305 8785 c-56 -21 -227 -114 -305 -166 -8 -5 -27 -15 -42 -22 -16
-6 -28 -14 -28 -18 0 -4 -11 -10 -25 -13 -14 -4 -25 -11 -25 -16 0 -6 -4 -10
-10 -10 -5 0 -31 -13 -58 -29 -26 -15 -68 -39 -93 -53 -105 -60 -275 -160
-284 -169 -5 -5 -17 -9 -27 -9 -10 0 -18 -4 -18 -8 0 -4 -26 -21 -57 -37 -32
-17 -60 -33 -63 -36 -3 -3 -54 -34 -115 -69 -160 -92 -175 -100 -235 -133 -30
-16 -62 -36 -71 -43 -8 -8 -19 -14 -22 -14 -4 0 -35 -17 -69 -38 -35 -21 -90
-54 -123 -72 -33 -18 -73 -42 -90 -52 -16 -10 -38 -21 -47 -24 -10 -4 -18 -10
-18 -15 0 -5 -5 -9 -11 -9 -8 0 -128 -66 -199 -110 -8 -5 -33 -19 -55 -31 -22
-11 -42 -24 -45 -28 -3 -3 -31 -19 -62 -36 -32 -16 -58 -33 -58 -37 0 -4 -8
-8 -19 -8 -10 0 -24 -7 -31 -15 -7 -8 -16 -15 -20 -15 -5 0 -52 -26 -107 -58
-54 -32 -120 -71 -148 -86 -27 -16 -85 -49 -130 -76 -180 -106 -468 -270 -476
-270 -5 0 -9 -4 -9 -10 0 -5 -6 -10 -14 -10 -8 0 -21 -6 -28 -12 -7 -7 -26
-20 -43 -28 -16 -8 -64 -35 -105 -59 -41 -24 -91 -53 -110 -64 -188 -105 -239
-153 -279 -257 -21 -54 -21 -63 -21 -2150 0 -2279 -3 -2145 53 -2240 27 -47
96 -111 149 -139 24 -12 68 -37 98 -56 30 -19 61 -34 68 -35 6 0 12 -4 12 -9
0 -5 10 -13 21 -16 12 -4 49 -25 83 -46 33 -21 67 -39 74 -39 6 0 12 -4 12
-10 0 -5 6 -10 13 -10 7 0 19 -6 26 -12 6 -7 15 -13 19 -13 7 -1 179 -99 242
-140 19 -12 45 -25 58 -29 12 -4 22 -12 22 -17 0 -5 4 -9 10 -9 5 0 71 -36
146 -80 75 -44 138 -80 140 -80 2 0 28 -16 59 -35 30 -20 55 -32 55 -28 0 4 4
3 8 -3 4 -6 39 -28 77 -49 39 -21 72 -42 75 -46 3 -3 15 -9 28 -13 12 -4 22
-12 22 -17 0 -5 6 -9 13 -9 8 0 52 -23 98 -51 46 -28 113 -67 149 -87 36 -19
72 -41 81 -48 8 -8 19 -14 22 -14 4 0 52 -27 108 -60 55 -33 105 -60 110 -60
5 0 9 -4 9 -8 0 -4 12 -13 28 -19 15 -7 50 -25 77 -41 219 -128 366 -213 410
-236 11 -6 31 -18 45 -27 54 -34 147 -88 190 -111 100 -54 285 -163 288 -170
2 -5 7 -8 12 -8 4 0 64 -32 132 -71 67 -40 148 -85 178 -102 30 -16 62 -35 70
-41 8 -6 25 -17 38 -24 20 -11 22 -10 23 15 4 183 -1 1286 -6 1302 -3 11 -10
21 -15 21 -5 0 -42 22 -82 49 -91 60 -339 222 -438 286 -41 27 -77 52 -78 57
-2 4 -8 8 -13 8 -8 0 -128 75 -164 103 -5 4 -75 50 -155 101 -80 52 -209 137
-287 188 -79 51 -151 98 -160 103 -10 6 -20 12 -23 15 -3 3 -36 26 -75 49 -38
24 -72 48 -73 53 -2 4 -8 8 -13 8 -8 0 -190 117 -281 181 -15 10 -30 19 -34
19 -11 0 -69 64 -81 90 -13 27 -30 89 -28 105 3 35 19 93 31 117 70 134 262
168 377 66 10 -9 40 -27 65 -40 26 -12 49 -25 52 -28 6 -7 264 -157 348 -202
31 -17 59 -35 60 -40 2 -4 7 -8 12 -8 5 0 47 -23 95 -50 48 -28 90 -50 95 -50
5 0 10 -3 12 -8 1 -4 44 -31 93 -59 50 -28 146 -83 215 -123 69 -40 141 -82
160 -92 19 -11 40 -23 45 -28 6 -4 42 -24 80 -45 39 -20 77 -44 86 -51 8 -8
18 -14 22 -14 4 0 40 -20 82 -45 71 -42 75 -43 76 -22 1 35 0 1578 -1 1622 -1
39 -4 42 -99 113 -54 40 -107 81 -118 90 -10 9 -26 22 -35 27 -36 23 -183 139
-186 146 -2 5 -8 9 -14 9 -6 0 -25 12 -43 28 -17 15 -42 34 -55 42 -13 8 -30
23 -39 33 -8 9 -21 17 -27 17 -7 0 -14 4 -16 8 -3 8 -124 102 -298 232 -47 35
-90 68 -95 74 -6 6 -18 16 -27 21 -17 10 -209 156 -218 165 -3 3 -38 30 -78
60 -111 83 -144 170 -112 290 16 59 92 134 156 153 70 20 135 14 191 -20 28
-16 225 -151 248 -170 6 -4 66 -46 135 -92 69 -47 127 -88 128 -93 2 -4 8 -8
14 -8 10 0 91 -54 115 -77 7 -6 22 -15 33 -18 11 -3 20 -11 20 -16 0 -5 5 -9
12 -9 6 0 21 -8 32 -19 12 -10 84 -60 161 -112 77 -51 142 -96 145 -99 13 -14
62 -41 67 -36 3 3 5 379 5 836 l0 832 -433 433 c-372 372 -437 441 -455 485
-25 60 -25 139 0 192 18 38 70 98 85 98 5 0 11 4 13 9 5 14 99 38 139 36 88
-6 115 -28 501 -415 203 -203 376 -374 383 -380 11 -9 64 38 252 224 484 479
526 518 579 542 56 27 80 30 139 19 140 -25 220 -164 178 -309 -14 -48 -44
-80 -454 -491 l-439 -441 0 -841 0 -842 108 72 c59 40 109 74 112 77 4 5 138
95 390 265 41 27 77 53 78 58 2 4 8 7 14 7 6 0 27 14 48 30 21 17 43 30 49 30
6 0 11 4 11 8 0 5 12 15 28 23 15 8 29 17 32 20 6 6 169 118 239 164 41 27 55
30 122 30 67 0 81 -4 125 -30 87 -55 133 -163 109 -258 -16 -64 -48 -106 -125
-163 -36 -27 -76 -59 -90 -71 -14 -13 -28 -23 -32 -23 -3 0 -13 -6 -20 -13 -7
-7 -87 -69 -178 -137 -91 -69 -169 -128 -175 -132 -5 -5 -37 -29 -71 -56 -33
-26 -73 -56 -88 -67 -74 -53 -171 -130 -174 -137 -2 -5 -8 -8 -14 -8 -5 0 -15
-6 -22 -12 -7 -7 -25 -22 -41 -33 -15 -11 -39 -29 -54 -41 -14 -11 -91 -70
-171 -130 -80 -60 -151 -115 -158 -122 -8 -6 -22 -17 -33 -22 -19 -10 -19 -32
-19 -856 l0 -846 33 20 c85 53 104 63 130 74 15 7 27 16 27 20 0 4 6 8 14 8 7
0 19 7 26 15 7 8 16 13 20 10 5 -3 11 -1 14 4 3 5 52 35 108 67 57 32 112 64
123 71 11 7 28 16 38 19 9 3 17 10 17 15 0 5 5 9 10 9 9 0 114 59 300 168 79
46 205 119 249 142 25 14 48 28 51 31 3 3 79 48 170 100 91 52 172 99 181 104
52 32 118 64 148 70 112 24 218 -22 267 -116 20 -40 31 -114 21 -149 -3 -8 -8
-30 -12 -47 -4 -18 -11 -33 -15 -33 -4 0 -12 -11 -18 -25 -6 -13 -37 -41 -69
-62 -32 -21 -60 -40 -63 -43 -3 -3 -13 -9 -22 -15 -48 -27 -282 -181 -300
-197 -12 -10 -25 -18 -30 -18 -5 0 -14 -5 -21 -10 -16 -14 -238 -160 -243
-160 -2 0 -39 -25 -83 -55 -44 -30 -82 -55 -86 -55 -3 0 -11 -5 -18 -11 -7 -6
-84 -57 -172 -114 -88 -57 -168 -110 -177 -118 -9 -9 -19 -13 -22 -9 -3 3 -6
0 -6 -6 0 -7 -5 -12 -10 -12 -9 0 -65 -35 -80 -50 -3 -3 -13 -9 -23 -15 -50
-28 -463 -301 -469 -310 -4 -5 -8 -308 -8 -673 l0 -663 31 18 c18 10 39 23 48
28 9 6 50 29 91 53 41 23 82 47 90 52 8 5 56 32 105 60 50 28 97 55 105 60 8
5 71 41 140 81 69 39 127 75 128 80 2 5 10 9 19 9 8 0 27 8 41 19 15 10 47 29
72 43 25 14 86 49 135 78 50 29 115 66 145 83 30 16 62 36 71 43 8 8 21 14 27
14 6 0 17 6 24 13 7 7 24 18 38 24 14 7 43 23 65 36 83 47 192 111 250 146 33
20 62 36 65 36 3 0 16 8 30 17 27 18 48 30 221 127 63 36 116 67 119 70 3 4
18 13 35 21 16 8 58 32 92 52 35 21 67 38 73 38 5 0 10 4 10 9 0 5 8 11 18 15
9 3 38 18 65 34 230 133 545 315 557 322 50 32 571 330 576 330 6 0 25 16 71
62 33 33 63 87 82 147 15 47 15 4209 0 4266 -16 62 -48 120 -90 162 -29 30
-295 193 -454 279 -11 6 -65 37 -120 69 -55 32 -120 69 -145 83 -25 14 -57 33
-72 43 -14 11 -29 19 -32 19 -3 0 -39 20 -79 45 -41 25 -80 45 -86 45 -6 0
-11 5 -11 10 0 6 -5 10 -10 10 -6 0 -40 18 -76 40 -36 22 -68 40 -70 40 -3 0
-22 11 -42 25 -36 23 -81 49 -189 106 -24 13 -43 27 -43 31 0 4 -4 8 -9 8 -9
0 -172 90 -181 100 -3 3 -18 12 -35 20 -16 8 -46 24 -65 36 -34 21 -332 193
-400 231 -19 11 -59 34 -88 52 -29 17 -57 31 -62 31 -6 0 -10 5 -10 10 0 6 -4
10 -9 10 -4 0 -78 40 -162 89 -85 49 -194 112 -244 140 -49 28 -97 56 -105 61
-8 6 -22 13 -30 17 -8 3 -39 21 -68 40 -29 18 -55 33 -57 33 -3 0 -22 11 -43
23 -20 13 -57 35 -82 49 -61 34 -99 56 -205 118 -49 29 -101 59 -115 67 -14 8
-47 27 -75 43 -27 17 -57 33 -65 37 -8 3 -17 9 -20 13 -3 3 -36 21 -75 40 -61
30 -80 35 -150 35 -44 1 -93 -4 -110 -10z"/>
</g>
</svg>
